<?xml version="1.0" encoding="UTF-8"?>
<!DOCTYPE svg PUBLIC "-//W3C//DTD SVG 1.1//EN" "http://www.w3.org/Graphics/SVG/1.1/DTD/svg11.dtd">
<!-- Creator: CorelDRAW 2020 (64-Bit) -->
<svg xmlns="http://www.w3.org/2000/svg" xml:space="preserve" width="12.7mm" height="12.7mm" version="1.1" style="shape-rendering:geometricPrecision; text-rendering:geometricPrecision; image-rendering:optimizeQuality; fill-rule:evenodd; clip-rule:evenodd"
viewBox="0 0 238.67 238.67"
 xmlns:xlink="http://www.w3.org/1999/xlink"
 xmlns:xodm="http://www.corel.com/coreldraw/odm/2003">
 <defs>
  <style type="text/css">
   <![CDATA[
    .str0 {stroke:#FEFEFE;stroke-width:3.32;stroke-miterlimit:2.61313}
    .fil6 {fill:#FEFEFE}
    .fil1 {fill:#00104D}
    .fil5 {fill:#002C00}
    .fil4 {fill:#014EA9}
    .fil8 {fill:#1649A7}
    .fil9 {fill:#1A0143}
    .fil3 {fill:#1E0045}
    .fil11 {fill:#292D30}
    .fil7 {fill:#537CC1}
    .fil2 {fill:#6D5449}
    .fil0 {fill:#B09048}
    .fil10 {fill:#EDF2ED}
    .fil12 {fill:#FEFEFE;fill-rule:nonzero}
   ]]>
  </style>
 </defs>
 <g id="Layer_x0020_1">
  <metadata id="CorelCorpID_0Corel-Layer"/>
  <g id="_1285008458000">
   <path class="fil0" d="M119.34 0c65.91,0 119.33,53.43 119.33,119.34 0,65.91 -53.43,119.34 -119.33,119.34 -65.91,0 -119.34,-53.43 -119.34,-119.34 0,-65.91 53.43,-119.34 119.34,-119.34z"/>
   <path class="fil1" d="M119.34 5.17c63.05,0 114.17,51.11 114.17,114.17 0,63.05 -51.11,114.17 -114.17,114.17 -63.05,0 -114.17,-51.12 -114.17,-114.17 0,-63.05 51.12,-114.17 114.17,-114.17z"/>
   <path class="fil0" d="M39.38 119.05c0,1.62 -0.18,3.58 0.19,5.15 0.18,0.77 0.33,3.59 0.44,4.57 0.1,0.88 0.25,1.37 0.28,2.16 0.06,1.56 0.52,2.71 0.76,4.19 0.28,1.75 0.94,4.64 1.51,6.02 0.51,1.27 0.59,2.61 1.06,3.94 0.24,0.68 0.43,0.53 0.71,1.72 0.15,0.64 0.32,1.47 0.6,1.95 0.68,1.17 1.14,2.63 1.62,3.35 0.64,0.97 0.94,2.16 1.64,3.21 0.48,0.73 0.37,1.01 0.72,1.7 0.4,0.77 1.49,2.32 1.82,3.18 0.37,0.97 0.8,1.55 1.35,2.35 0.1,0.15 0.16,0.21 0.25,0.39 0.4,0.74 1.05,1.41 1.29,1.91 0.49,1.03 1.28,2 2.13,2.83l2.18 2.81c1.2,1.57 2.54,2.77 3.79,4.25 0.14,0.16 0.14,0.2 0.28,0.36 0.42,0.48 0.83,0.68 1.27,1.15 0.27,0.29 0.38,0.35 0.67,0.61 0.41,0.39 0.71,0.83 1.18,1.24 0.71,0.62 1.2,1.2 1.95,1.74 0.32,0.23 0.47,0.27 0.78,0.51l5.57 4.39c0.84,0.47 0.79,0.2 1.48,0.94 0.58,0.61 3.57,2.06 4.68,2.86 0.57,0.42 0.95,0.5 1.59,0.84 0.61,0.32 0.84,0.67 1.6,0.95 0.86,0.32 0.81,0.2 1.67,0.76 0.76,0.5 1.78,0.67 2.61,1.1 0.29,0.15 0.38,0.36 0.75,0.51 0.64,0.27 1.27,0.27 1.84,0.59 2.23,1.21 2.46,0.8 3.66,1.32 0.03,0.01 0.06,0.03 0.09,0.04 0.02,0.01 0.06,0.03 0.08,0.04 1.14,0.58 2.28,0.92 3.52,1.2 2.52,0.57 3.13,0.95 5.91,1.49l6.31 1.2c1.68,0.14 5.34,0.64 6.75,0.65 2.44,0.02 4.98,0.13 7.41,-0 1.09,-0.06 1.99,-0.31 3.33,-0.36 0.67,-0.02 0.62,-0.12 1.05,-0.2 1.13,-0.2 2.22,-0.21 3.41,-0.3l7.3 -1.39c0.87,-0.12 1.13,-0.37 1.86,-0.67 0.35,-0.14 0.52,-0.15 0.9,-0.24 0.33,-0.08 0.67,-0.23 0.97,-0.31 0.68,-0.18 1.43,-0.32 2.13,-0.44 0.91,-0.15 2.6,-0.99 3.66,-1.32l4.35 -1.8c1.09,-0.56 1.98,-0.61 2.64,-1.07 0.51,-0.36 0.99,-0.56 1.64,-0.81 1.06,-0.41 1.5,-0.8 2.41,-1.28l7.57 -4.95c1.37,-0.78 2.54,-2.02 3.81,-2.95l1.04 -0.88c0.47,-0.42 0.94,-0.67 1.37,-1.17 0.4,-0.48 1.05,-0.73 1.95,-1.75 0.19,-0.21 0.44,-0.41 0.66,-0.62l1.86 -1.73c0.14,-0.11 0.15,-0.13 0.32,-0.31l1.45 -1.61c0.91,-0.85 1.22,-2.04 2.1,-2.87 0.67,-0.62 1.21,-1.3 1.65,-2.07 0.2,-0.36 0.33,-0.33 0.6,-0.67 0.4,-0.49 0.68,-1.01 1.04,-1.52l2.51 -3.63c0.19,-0.43 0.26,-0.42 0.52,-0.75l0.99 -1.56c0.47,-0.99 0.82,-1.08 1.3,-2.41 0.32,-0.88 1,-1.39 1.39,-2.29 0.32,-0.72 0.59,-1.02 0.87,-1.68 0.26,-0.59 0.32,-1.2 0.62,-1.82 0.28,-0.57 0.72,-1.07 0.87,-1.68 0.33,-1.37 0.34,-1.59 0.94,-2.79 0.16,-0.32 0.2,-0.63 0.31,-0.97 0.13,-0.42 0.11,-0.48 0.19,-0.98 0.15,-0.92 0.76,-1.92 0.99,-2.84l0.76 -2.94c0.12,-0.42 0.25,-0.55 0.38,-0.87 0.22,-0.56 0.24,-1.47 0.43,-2.01 0.49,-1.38 0.15,-0.75 0.47,-2.06 0.34,-1.37 0.56,-2.74 0.78,-4.2 0.37,-2.46 0.58,-8.63 0.58,-11.83l-0.17 -5.97c-0.37,-2.83 -0.47,-5.63 -1.21,-8.48 -0.36,-1.36 -0.32,-2.84 -0.65,-4.24l-0.87 -2.7c-0.61,-2.41 -1.25,-3.1 -1.47,-4.66 -0.1,-0.75 -0.41,-1.12 -0.69,-1.72 -0.3,-0.64 -0.54,-1.04 -0.66,-1.78l-0.46 -1.33c-0.16,-0.27 -0.09,-0.14 -0.27,-0.37 -0.47,-0.6 -1.77,-4.01 -2.28,-5 -0.29,-0.56 -0.63,-0.89 -0.92,-1.51 -0.14,-0.31 -0.2,-0.49 -0.36,-0.79 -0.23,-0.45 -0.29,-0.4 -0.54,-0.73 -0.5,-0.67 -0.74,-1.61 -1.24,-2.34 -0.45,-0.64 -0.84,-1.75 -1.4,-2.29 -0.45,-0.44 -0.78,-0.85 -1.09,-1.33l-2.49 -3.51c-0.25,-0.29 -0.39,-0.32 -0.65,-0.62 -0.41,-0.49 -0.57,-1.03 -0.95,-1.48l-4.32 -4.88c-0.02,-0.02 -0.04,-0.05 -0.06,-0.07l-0.79 -0.73c-0.33,-0.31 -0.39,-0.28 -0.74,-0.53 -0.49,-0.35 -0.79,-0.74 -1.29,-1.15 -0.66,-0.54 -1.11,-1.25 -1.83,-1.74l-9.84 -7.15c-0.15,-0.11 -0.23,-0.16 -0.36,-0.28 -0.77,-0.7 -1.86,-0.92 -2.69,-1.52l-5.62 -2.94c-0.98,-0.34 -0.88,-0.26 -1.65,-0.78 -0.53,-0.36 -1.04,-0.47 -1.79,-0.65 -0.64,-0.15 -1.18,-0.41 -1.77,-0.66l-1.7 -0.71c-0.62,-0.23 -1.23,-0.32 -1.89,-0.55 -0.75,-0.25 -0.81,-0.51 -1.73,-0.69 -0.67,-0.13 -1.24,-0.29 -1.97,-0.46 -0.73,-0.17 -1.18,-0.4 -1.83,-0.6 -1.23,-0.37 -2.85,-0.44 -4.21,-0.67l-3.98 -0.86c-0.63,-0.26 0.01,-0.23 -0.78,-0.29 -0.42,-0.03 -0.82,0 -1.26,-0.05 -1.96,-0.23 -3.11,-0.12 -4.61,-0.27 -2.67,-0.26 -4.66,-0.21 -7.29,-0.21 -0.9,0 -1.48,-0.01 -2.26,0.15 -0.7,0.14 -2.08,0.1 -3.28,0.29 -1.93,0.3 -3.52,0.23 -5.55,0.7 -0.65,0.15 -1.35,0.25 -2.03,0.4 -1.34,0.31 -2.81,0.42 -4.08,0.89 -0.88,0.32 -1.92,0.45 -2.83,0.76l-2.69 0.99c-1.21,0.52 -2.43,0.79 -3.66,1.32 -1.26,0.55 -1.57,0.37 -3.52,1.35 -0.55,0.28 -1.23,0.53 -1.78,0.77 -0.56,0.25 -0.99,0.7 -1.56,0.86 -1.93,0.54 -6.41,3.33 -7.97,4.3 -0.55,0.34 -0.78,0.75 -1.37,1.05 -0.81,0.41 -1.34,1.15 -2.18,1.53 -0.6,0.27 -0.39,-0.02 -0.83,0.43l-2.62 2.24c-0.65,0.53 -1.29,1.24 -1.98,1.72l-4.21 3.73c-0.76,0.56 -1.73,2.05 -2.75,2.86l-0.13 0.11c-0.46,0.42 -0.49,0.81 -0.93,1.24l-2.24 2.73c-0.56,0.81 -2.47,3.03 -2.65,3.47 -0.54,1.34 -1.74,2.43 -2.43,3.72 -0.37,0.7 -0.45,0.94 -0.91,1.52 -0.51,0.64 -0.51,0.99 -0.9,1.66 -0.81,1.37 -0.58,0.71 -1.24,2.33 -0.35,0.87 -0.98,1.49 -1.26,2.43 -0.28,0.9 -0.33,1.05 -0.78,1.8 -0.41,0.7 -0.36,0.98 -0.67,1.76l-0.82 1.6c-0.23,0.43 -0.14,0.38 -0.31,0.84l-0.08 0.18c-0.37,0.79 -0.49,1.86 -0.9,2.68 -0.42,0.86 -0.31,0.91 -0.51,1.91 -0.15,0.71 -0.41,1.16 -0.64,1.77 -0.53,1.43 -0.53,2.55 -0.81,4.2 -0.11,0.67 -0.39,1.23 -0.55,1.86 -0.18,0.73 -0.22,1.3 -0.39,2.04l-0.39 1.99c-0.08,0.8 -0.23,1.44 -0.26,2.29 -0.05,1.61 -0.48,2.71 -0.5,4.34 -0.01,1.55 -0.14,3.15 -0.14,4.86z"/>
   <path class="fil2" d="M186.84 153.65c0.81,-0.2 -0.12,0.23 0.35,-0.22l1.43 -2.69c1.3,-3.68 2.86,-6.89 3.58,-10.97l0.85 -4c0.83,-4.28 1.43,-8.61 1.43,-13.02 0.01,-7.63 -0.77,-14.55 -2.55,-21.5 -0.42,-1.63 -2.42,-7.01 -3.21,-8.82l-1.26 -1.41c-0.03,0.05 -0.11,-0.04 -0.16,-0.04l-3.58 1.06c-1.57,0.64 -3.31,0.88 -5.02,1.08 -0.73,0.09 -1.67,0.14 -2.54,0.27l-6.97 1.53c-2.65,1.11 -4.25,1.17 -6.41,3.28l-3.22 3.14c-0.03,0.03 -0.14,0.14 -0.17,0.17l-1.49 1.48c-0.8,0.92 -4.03,3.25 -4.88,3.86 -1.74,1.25 -2.95,1.58 -4.53,2.56 -0.98,0.61 -1.79,0.71 -2.75,1.38 -0.65,0.45 -1.92,0.78 -2.44,1.02 -1.14,0.53 -2.34,0.91 -3.43,1.56l-5.43 3.01c-4.48,3.3 -2.79,2.52 -4.96,4.85 -0.67,0.72 -2.19,3.46 -2.65,4.46 -0.32,0.7 -0.81,0.87 -1.05,1.64 -0.29,0.94 -0.46,1.33 -0.65,2.28 -0.46,2.25 -0.42,5.2 -0.01,7.63 0.41,2.42 0.47,4.81 1.28,7.18 0.73,2.12 1.25,8.08 1.17,10.24 -0.05,1.46 -0.44,3.55 -0.66,5.02 -0.4,2.68 -1.43,6.1 -2.68,8.53 -0.51,0.99 -0.67,2 -1.17,2.97 -0.2,0.39 -0.36,0.55 -0.49,0.87 -0.87,2.11 0.48,5.02 1.33,6.77 0.6,1.23 1.43,5.27 1.61,6.77 0.21,1.73 0.09,3.76 -0.29,5.21 -0.17,0.67 -0.28,1.48 -0.58,2.17 -0.51,1.19 -0.64,3.01 1.01,3.14 0.51,0.04 1.19,0 1.7,-0.07l8.49 -1.36c2.52,-0.33 7.82,-1.92 10.3,-3 0.82,-0.35 1.71,-0.48 2.38,-0.89 2.01,-1.21 4.55,-2.01 6.54,-3.26 1.95,-1.23 3.81,-2.09 5.6,-3.54l6.53 -4.84c0.25,-0.21 0.29,-0.23 0.48,-0.4l1.43 -1.28c2.13,-1.21 6.38,-5.68 7.68,-7.56 0.63,-0.92 0.75,-0.98 1.47,-1.78 0.26,-0.29 0.47,-0.53 0.71,-0.83 0.22,-0.27 0.2,-0.23 0.37,-0.54l6.69 -10.54c0.41,-0.7 1.05,-1.75 0.85,-2.54z"/>
   <path class="fil3" d="M186.84 153.65c-0.12,-0.94 0.25,-0.89 0.54,-1.67l4.34 -14.01c0.25,-1.43 1.01,-2.62 1.15,-5.74 0.26,-5.68 0.89,-12.19 0.19,-17.92 -0.26,-2.11 -0.14,-4.64 -1,-6.63l-0.11 -0.23c-0.52,-1.32 -0.84,-3.07 -1.08,-4.54l-0.68 -2.77c-0.16,-1.12 -0.43,-1.68 -0.78,-2.72l-1.19 -2.81c-0.6,-0.97 0.09,0.73 -0.2,-0.41 -0.32,-1.22 -0.24,-1.98 -2.08,-1.76 -0.34,0.04 -0.78,0.17 -1.13,0.34 -2.51,1.25 -7.27,1.18 -11.43,2.34 -1.53,0.42 -3.05,0.56 -4.4,1.12 -0.5,0.21 -0.22,0.14 -0.83,0.34l-0.97 0.45c-0.56,0.32 -1.33,0.51 -1.97,0.77l-3.28 2.32c-0.35,0.44 -0.15,0.36 -0.57,0.8l-5.54 5.27c-1.02,0.68 -1.39,0.74 -2.53,1.64l-3.29 2.21c-0.68,0.41 -1.23,0.43 -1.91,0.86 -0.33,0.21 -0.51,0.35 -0.83,0.55 -1.56,0.98 -1.89,0.68 -3.73,1.77 -0.03,0.02 -0.07,0.05 -0.11,0.07l-0.87 0.32c-0.87,0.25 -1.23,0.53 -1.89,0.88 -1.01,0.53 -1.71,0.97 -2.8,1.32 -0.98,0.31 -1.71,0.9 -2.57,1.42l-1.89 1.06c-0.22,0.17 -0.43,0.49 -0.69,0.7 -0.49,0.4 -0.48,0.22 -0.89,0.51 -0.39,0.27 -0.86,1.07 -1.24,1.5 -1.15,1.29 -2.5,3.37 -3.11,4.97l-0.84 1.92c-0.32,0.49 -0.36,1.48 -0.56,2.2 -0.8,2.86 -0.44,7.13 0.28,9.91 1.23,4.75 2.19,9.32 2.13,14.31 -0.04,3.16 -1.92,10.48 -3.06,13.39l-1.69 3.79c-0.53,1.56 -0.55,3.13 0.02,4.52 1.67,4.11 2.85,9.48 2.31,14.03 -0.12,0.99 -0.02,1.64 -0.39,2.44 -0.47,1.01 -0.43,0.98 -0.38,2.32 1.62,1.16 3.12,0.09 5.09,-0.17 3.32,-0.44 4.88,-0.7 8.1,-1.57 0.89,-0.24 1.64,-0.34 2.74,-0.58 0.81,-0.17 1.31,-0.74 2.2,-1.01l2.45 -0.83c1.73,-0.51 3.01,-0.98 4.62,-1.79 0.76,-0.38 1.35,-0.69 2.24,-1.04 0.92,-0.36 1.45,-0.63 2.25,-1.04l4.19 -2.35c0.46,-0.3 0.32,-0.37 0.77,-0.75l3.03 -1.98c0.96,-0.68 1.8,-1.24 2.56,-2.08 0.6,-0.67 2.82,-2.16 3.58,-2.97 1.82,-1.94 3.94,-3.65 5.62,-5.77 0.26,-0.33 0.46,-0.53 0.73,-0.8 0.29,-0.29 0.54,-0.61 0.82,-0.91 1.1,-1.17 1.84,-2.38 2.74,-3.66l2.68 -3.86c1.15,-1.54 2.26,-3.32 3.05,-5.07 0.41,-0.89 0.82,-1.09 1.25,-1.99 0.38,-0.79 0.09,-0.87 0.81,-0.91z"/>
   <path class="fil4" d="M121.48 111.52c0.11,-0.51 0.53,-0.91 0.96,-1.27l0.85 -0.86c0.2,-0.25 0.45,-0.49 0.67,-0.72 1.62,-1.68 1.41,-1.13 3.14,-2.37 2.92,-2.09 1.02,-0.69 3.48,-2.04 0.56,-0.31 1.11,-0.7 1.76,-0.99 0.72,-0.33 1.43,-0.45 2.09,-0.84 0.34,-0.2 0.54,-0.4 0.83,-0.54l4.74 -2.16c0.45,-0.22 0.49,-0.28 0.92,-0.45l4.61 -2.46 3 -2.69c0.48,-0.45 0.99,-0.88 1.4,-1.36 0.73,-0.85 0.8,-0.62 1.51,-1.25 0.86,-0.76 0.59,-1.05 2.1,-2.04 0.63,-0.42 0.99,-0.9 1.66,-1.28 0.28,-0.16 0.65,-0.34 0.86,-0.51 2.69,-2.08 3.19,-2.47 6.51,-3.37 0.05,-0.02 0.42,-0.13 0.5,-0.16 2.58,-1.14 2.21,-0.73 4.75,-1.47l1.59 -0.47c0.28,-0.06 0.48,-0.07 0.76,-0.12l2.38 -0.38c2.54,-0.56 5.02,-0.83 7.7,-0.82l0.17 -0.5c0.3,-0.64 1.63,-1.22 -0.32,-3.35l-2.8 -3.58c-0.4,-0.43 -0.42,-0.22 -0.83,-0.72l-4.48 -5 -5.33 -4.33c-0.56,-0.48 -0.06,-0.24 -1.16,-1.07 -1.37,-1.05 -2.28,-1.46 -3.24,-2.47l-5.83 -3.67c-0.81,-0.07 -1.67,-0.64 -2.3,-1.09 -0.03,-0.02 -0.07,-0.06 -0.09,-0.08l-12.99 -5.1c-3.52,-0.94 -7.03,-2.01 -10.63,-2.43 -8.3,-0.95 -15.69,-1.04 -23.97,0.42l-7.19 1.61c-1.69,0.53 -6.33,1.85 -7.5,2.6 -0.17,0.11 -0.12,0.09 -0.34,0.2 -0.55,0.27 -1.12,0.43 -1.65,0.63 -0.64,0.25 -0.75,0.39 -1.44,0.64 -1.28,0.47 -7.47,3.91 -8.34,4.54 -0.81,0.59 -2.87,1.69 -3.33,2.16l-5.87 4.47c-0.02,0.02 -0.05,0.07 -0.08,0.09 -0.02,0.03 -0.05,0.07 -0.08,0.1l-5.06 4.97c-2.44,2.22 -4.06,4.97 -5,5.84 -0.84,0.78 -1.62,1.52 -1.57,3.01l0.39 0.18c1.59,0.63 -0.06,0.48 1.58,0.66 1.01,0.11 1.85,0.1 2.88,0.22 1.14,0.13 3.95,0.59 5.05,1.05 0.04,0.02 0.08,0.04 0.11,0.06l2.08 0.54c4.65,1.32 4.49,1.18 8.8,3.26 1.49,0.72 6.78,5.45 8.26,6.85 0.55,0.52 0.91,1.09 1.46,1.64 0.54,0.54 1.06,0.83 1.67,1.43 1.16,1.15 6.07,3.9 7.54,4.54l6.24 2.88c1.18,0.75 1.99,0.79 3.04,1.45 3.17,1.98 3.09,1.51 6.32,4.36 0.76,0.67 2.7,2.23 3.16,2.86 0.97,1.31 1.58,2.38 3.21,1.15 0.05,-0.03 0.18,-0.13 0.23,-0.16 0.41,-0.26 -0.3,0.05 0.45,-0.22z"/>
   <path class="fil4" d="M60.24 82.04c1.38,0.1 2.88,-0.04 4.19,0.1 0.75,0.08 0.87,0.38 1.46,0.59 0.31,0.11 1.29,0.31 1.71,0.43l5.28 1.04c0.84,0.35 0.51,0.44 1.76,0.45 0.06,0.82 0.14,0.53 0.7,0.8 1.28,0.61 1.09,-0.06 2.52,1.01 0.04,0.03 0.29,0.19 0.33,0.22l2.35 1.4c0.51,0.31 0.82,0.68 1.27,1.06l5.82 5.17c0.23,0.26 0.27,0.4 0.59,0.7 0.49,0.47 0.72,0.65 1.17,1.17 0.24,0.27 0.34,0.41 0.6,0.69 0.45,0.49 0.19,0.2 0.53,0.71 0.45,0.67 0.67,0.61 1.25,1.15l2.64 2.22c0.84,0.83 2.15,0.83 3.1,1.72 1.28,1.19 3.18,1.17 4.83,2.48 0.46,0.36 1.12,0.51 1.7,0.69 0.01,0 0.88,0.28 0.92,0.3 0.03,0.02 0.08,0.04 0.11,0.05l0.5 0.38c0.98,0.77 2.17,1.12 3.17,1.85 0.44,0.32 0.76,0.74 1.29,1.05 0.62,0.37 1.16,0.39 1.66,0.82l3.76 3.48c0.27,0.2 0.45,0.24 0.73,0.51l0.31 0.38c0.72,1.01 1.47,1.62 1.86,2.33 0.18,0.33 0.3,0.59 0.45,0.86l1.89 0.07c0.18,-0.66 0.65,-1.54 1.04,-1.92 0.7,-0.7 1.54,-1.46 2.1,-2.3l4.78 -3.95c0.48,-0.2 0.71,-0.17 1.17,-0.47 0.98,-0.64 0.56,-0.57 1.73,-1.13 1.28,-0.62 2.39,-1.72 3.67,-2.2 0.79,-0.3 1.43,-0.85 2.14,-1.27 0.03,-0.02 0.08,-0.05 0.11,-0.07 2.53,-1.51 2.79,-0.6 4.25,-1.84 0.82,-0.69 2.55,-1.03 3.35,-1.84 0.42,-0.43 0.18,-0.24 0.77,-0.65l1.54 -1.38c0.83,-1.03 1.03,-0.69 1.58,-1.49 0.38,-0.55 0.13,-0.39 0.59,-0.85 1.95,-1.93 4.24,-4.66 6.22,-6.26l0.2 -0.16c0.03,-0.02 0.07,-0.06 0.1,-0.08 0.03,-0.02 0.07,-0.05 0.1,-0.07l1.02 -0.55c1.59,-0.66 3.67,-2.66 5.63,-3.15 1.87,-0.47 2.3,-0.84 3.28,-1.14l1.06 -0.38c1.03,-0.47 5.83,-1.24 7.24,-1.54 4.16,-0.87 1.35,-0.31 5.09,-0.7 0.37,-2.62 -2.07,-3.62 -3.07,-5.64 -0.58,-1.17 -4.37,-5.48 -5.55,-6.49 -2.22,-1.92 -3.56,-4.03 -5.94,-5.96l-2.61 -1.92c-0.31,-0.26 -0.44,-0.46 -0.73,-0.7 -1.09,-0.93 -2.41,-1.55 -3.53,-2.41 -0.9,-0.68 -1.95,-0.99 -2.79,-1.68 -0.89,-0.73 -1.8,-0.95 -2.73,-1.56 -1.38,-0.9 -2.68,-1.25 -3.93,-1.96 -1.87,-1.05 -3.98,-2.15 -6.04,-2.63 -0.84,-0.2 -1.55,-0.41 -2.32,-0.72 -1.35,-0.54 -3.11,-0.66 -4.56,-1.24 -2.96,-1.17 -6.98,-0.65 -10.15,-1.41 -2.01,-0.47 -11.79,-0.18 -13.88,0.28 -1.92,0.43 -4.41,-0.13 -6.35,0.84 -1.19,0.59 -2,0.7 -3.2,1.01 -0.82,0.22 -1.65,0.25 -2.48,0.51l-10.22 4.15c-0.63,0.32 -1.42,0.52 -1.99,0.88 -0.63,0.39 -1.19,0.66 -1.8,1.05l-7.17 4.48 -4.83 3.99c-0.61,0.6 -0.84,0.79 -1.58,1.32 -0.85,0.6 -0.83,1.03 -1.45,1.62l-4.27 4.42c-1.32,1.14 -2.27,3.05 -2.6,3.43 -0.54,0.63 -1.01,0.98 -1.4,1.73 -0.6,1.16 -1.72,1.57 -2.02,2.75l-0.02 1.38z"/>
   <path class="fil5" d="M107.7 181.17c-1.21,-0.01 -0.78,-0.15 -1.66,-0.59 -1.02,-0.51 -2.57,-0.5 -3.29,-1.01 -0.03,-0.02 -0.07,-0.05 -0.09,-0.07 -0.01,-0.01 -0.26,-0.22 -0.28,-0.23 -1.24,-1.01 -1.77,-0.39 -2.6,0.4 -0.44,0.42 -1.27,0.6 -1.87,0.84 -3.94,1.59 -4.08,0.14 -6.29,-0.48 -1.34,-0.37 -2.83,-0.45 -3.26,-2.04l-0.67 -1.94c-1.42,-0.01 -2.51,0.05 -3.57,-0.46 -0.49,-0.24 -0.74,-0.55 -1.29,-0.78 -1.18,-0.49 -2.66,-1.28 -3.48,-2.31 -0.28,-0.35 -0.36,-0.76 -0.35,-1.46 0.02,-1.24 -0.06,-0.87 -0.16,-1.65 -0.06,-0.46 -2.16,-0.58 -2.74,-0.91 -0.73,-0.41 -1.34,-0.96 -2.03,-1.41 -2.75,-1.82 -1.59,-2.13 -2.03,-4.46 -0.01,-0.04 -0.04,-0.07 -0.05,-0.15 -0.05,-0.58 -1.88,-0.72 -2.73,-1.3l-0.47 -0.49c-0.63,-0.88 -0.83,-0.58 -1.23,-0.89l-0.26 -0.23c-0.02,-0.02 -0.06,-0.06 -0.08,-0.09l-0.15 -0.18c-0.48,-0.63 -0.29,-0.62 -0.95,-1.16l-0.83 -0.69c-0.59,-0.79 0.2,-2 0.12,-3.59l-1.38 -1.04c-0.18,-0.13 -0.33,-0.2 -0.43,-0.26 -0.68,-0.45 -0.87,-1.1 -1.42,-1.67 -0.6,-0.63 -1.11,-0.83 -1.25,-1.89 -0.14,-1.1 0.14,-1.89 0.15,-2.94l-1.22 -0.95c-0.42,-0.43 -0.48,-0.66 -1,-1.1 -0.24,-0.2 -0.35,-0.28 -0.56,-0.46l-0.27 -0.24c-0.52,-0.48 -0.61,-0.95 -1.11,-1.47 -1.02,-1.06 -1.31,-0.59 -1.36,-2.69 -0.06,-2.74 2.23,-1.8 0.51,-3.87l-1.41 -2.05c-0.84,-1.08 -1.27,-2.77 -0.73,-4.08 0.49,-1.18 3.54,-1.1 0.71,-2.66 -0.5,-0.27 -0.75,-0.75 -0.97,-1.2 -0.26,-0.53 -0.39,-1.18 -0.68,-1.77 -0.28,-0.56 -0.5,-0.96 -0.45,-1.76 0.05,-0.79 0.34,-1.07 0.76,-1.65 1.61,-2.18 3.2,-0.12 5.07,-0.27 0.18,-1.86 -0.02,-1.88 0.62,-3.69 0.42,-1.19 0.68,-1.82 2.07,-2.07 2.2,-0.39 2.98,0.71 3.67,2.34 0.29,0.7 0.16,0.96 0.72,1.39 1.12,-0.04 0.65,-0.26 1.15,-0.98 0.95,-1.35 3.44,-0.67 4.23,0.05 1.33,1.22 0.45,4.97 0.51,6.88l1.52 0.05c0.23,0.54 0.23,0.29 0.49,0.68l0.83 1.44c1.07,2.63 -0.24,2.64 -0.28,4.61l0.25 0.22c1.49,1.23 0.93,0.13 2.4,2.27 0.65,0.95 0.18,3.06 0.33,4.4 1.47,1.11 1.03,-0.32 2.28,2.81 0.96,2.41 -0.21,1.65 -0.14,3.95 1.08,0.45 2.66,0.97 3.12,2.19 0.79,2.07 0.91,2.04 1.01,4.38 0.53,0.25 0.59,0.42 1.26,0.51 0.94,0.13 0.9,0.32 1.59,0.8l1.15 1.05c0.49,0.51 0.74,1.27 0.97,2.07l0.84 2.33c0.9,0.09 1.97,0.28 2.72,0.59 0.82,0.34 1.08,0.82 1.5,1.57 0.91,1.66 1.75,1.19 2.15,4.06 1.62,0.05 3.21,-0.21 4.28,0.57l2.04 2.75c0.65,0.91 0.97,2.23 1.44,3.35 0.85,2.03 -0.2,2.14 -0.14,3.74 0.2,0.47 1.85,0.76 2.98,1.59 1.11,0.82 1.76,1 3.63,0.8 0.18,-2.18 -1.38,-1.42 0.23,-7.31 0.24,-0.87 0.68,-2.52 1,-3.35 0.45,-1.19 3.04,-3.4 -0.8,-4.13 -1.31,-0.25 -0.99,-0.15 -1.82,-0.88 -2.05,-1.81 -2.16,-0.24 -4.01,0.22 -2,0.5 -3.37,-0.42 -4.63,-0.9l-1.47 -0.59c-1.32,-0.92 -0.42,-1.73 -0.91,-2.53 -1.56,-1.25 -4.42,-0.26 -5.16,-2.55 -0.48,-1.5 -0,-1.72 -1.28,-2.73 -0.96,-0.75 -1.64,-0.77 -2.49,-1.3 -1.31,-0.81 -0.55,-1.43 -1,-3.01 -0.26,-0.9 -1.09,-1.29 -1.88,-1.87 -3.76,-2.75 -1.89,-3.94 -2.51,-5.27 -0.19,-0.41 -1.39,-0.7 -2.12,-1.96 -0.36,-0.62 -0.87,-1.2 -0.85,-1.99 0.05,-1.59 0.5,-1.34 -0.55,-2.67 -0.88,-1.12 -1.71,-1.45 -1.83,-1.61 -0.89,-1.15 0.05,-3.9 -0.02,-4.54 -0.07,-0.61 -1,-1.96 -1.31,-2.72 -0.12,-0.29 -0.39,-0.99 -0.26,-1.71l0.25 -0.55c0.4,-0.47 -0.11,0.04 0.48,-0.33l0.59 -0.46c-0.18,-0.37 -0.06,-0.67 -0.39,-1.26 -0.29,-0.51 -0.47,-0.52 -0.8,-0.95 -1,-1.29 -0.49,-3.33 0.25,-3.94l0.78 -0.46c0.16,-0.02 2.14,1.17 3.12,-0.14 0.19,-0.26 0.09,-0.09 0.24,-0.45 0.45,-1.05 0.58,-2.05 1.94,-2.16 3.04,-0.25 1.95,1.03 3.44,2.08 1.64,0.62 4.69,-2.33 3.8,3.98 -0.26,1.83 1.58,1.3 1.8,2.89 0.18,1.3 -0.35,2.15 -0.35,3.25 0.35,0.94 1.4,0.6 1.66,1.83 0.14,0.65 -0.1,0.86 -0.21,1.29 -0.17,0.65 -0.11,1.14 -0.07,1.79 2.46,1.48 1.17,2.5 1.26,4.64l1.04 0.84c1.79,1.2 0.26,3.68 2.71,4.71 1.53,0.64 1.21,1.42 1.57,3.04 0.45,2.04 1.76,0.88 2.78,1.73 0.38,0.32 0.57,1.05 0.81,1.61 1.72,4.04 3.38,2.15 4.44,3.64 0.6,0.84 1.33,3.35 1.4,4.36 0.06,0.88 -0.12,1.29 0.07,2.25 0.79,0.47 1.77,0.7 2.42,1.24 0.69,0.57 1.28,0.99 2.56,0.92 0.77,-1.08 0.61,-6.38 0.39,-8.16 -0.33,-2.69 -1.26,-4.46 -1.6,-6.82 -0.18,-1.28 -0.48,-6.36 -0.96,-7.53 -0.48,-1.17 -0.53,-3.98 -0.09,-5.25 0.82,-2.36 -0.11,-4.51 -0.96,-6.61 -0.7,-1.7 -1.95,-2.12 -2.19,-3.47 -0.27,-0.91 -2.16,-2.37 -3.17,-2.79l-0.65 -0.34c-0.39,-0.37 -0.46,-0.72 -0.85,-1.05 -0.4,-0.33 -0.93,-0.54 -1.53,-0.74 -1.19,-0.4 -1.72,-1.18 -2.95,-1.53 -2.63,-0.76 -4.98,-2.25 -7.5,-3.36 -3.21,-1.41 -1.25,-0.54 -2.82,-1.64 -0.48,-0.33 -1.05,-0.46 -1.57,-0.7 -1,-0.46 -1.5,-1.27 -2.34,-1.94 -0.51,-0.4 -0.73,-0.73 -1.17,-1.07 -0.56,-0.45 -1.38,-0.97 -1.87,-1.58 -0.62,-0.77 -1.02,-0.88 -1.83,-1.44 -0.48,-0.33 -0.63,-0.8 -1.03,-1.2 -0.44,-0.43 -0.8,-0.53 -1.23,-1.01 -0.34,-0.39 -0.52,-0.73 -0.98,-1.1 -1.6,-1.31 -3.49,-2.55 -5.42,-3.38 -1.03,-0.44 -2.42,-0.66 -3.5,-0.98 -5.02,-1.51 -3.99,-0.5 -6.59,-1.17 -0.72,-0.19 -4.77,-0.65 -6.29,-1.45 -0.96,-0.5 -0.25,-0.33 -1.7,-0.55 -2.28,-0.34 -2.39,0.63 -3.24,3.05l-1.04 3.46c-0.6,1.82 -0.51,1.16 -1,3.32 -0.12,0.51 -0.41,1.14 -0.57,1.64 -0.74,2.31 -1.13,4.85 -1.5,7.29 -0.22,1.46 -0.14,2.73 -0.3,4.21 -0.92,8.32 0,16.22 1.5,24.28 0.19,1.01 0.81,3.38 1.32,4.34l0.68 1.54c0.15,0.37 0.17,0.36 0.28,0.74 0.83,2.83 0.56,1.4 1.4,3.08 0.36,0.71 0.24,1.1 0.46,1.79l2.76 6.04c1.23,2.13 2.48,5.01 4.1,6.78l3.38 4.55c0.02,0.02 0.06,0.06 0.08,0.09l0.17 0.18c0.23,0.26 0.08,0.07 0.23,0.28 1.17,1.64 1.42,1.47 2.09,2.39l1.47 1.81c0.14,0.17 0.36,0.4 0.49,0.55l7.26 6.7 10.3 6.77c0.52,0.26 0.79,0.6 1.44,0.81l2.96 1.35c1.27,0.7 2.67,0.85 3.91,1.61 0.92,0.57 1.31,0.59 2.29,0.98 0.62,0.24 0.15,0.15 0.73,0.45 1.59,0.81 9.54,2.83 11.22,2.93 1.75,0.1 4.25,1.54 5.12,-0.56l1.42 -5.12c0.08,-2.64 0.01,-3.57 -0.8,-5.76 -0.2,-0.56 -0.24,-1.24 -0.72,-1.51 -0.19,-0.11 -2.74,-0.58 -3.31,-0.52z"/>
   <path class="fil6" d="M139.2 146.67c-0.42,0.03 -0.63,-0.11 -0.77,0.7 -0.07,0.38 0.06,1.18 0.11,1.59 1.94,0.59 3.51,0.83 2.85,2.86 -1.31,3.99 2.26,2.5 3.19,2.91 0.43,0.43 0.69,0.85 0.6,1.79 -0.09,0.92 -0.52,1.09 -1.47,1.17 -3.04,0.23 -1.32,1.24 -2.93,2.61 -1.27,0.09 -2.68,-0.87 -3.52,0.14 -0.72,0.87 0.08,2.34 -0.15,3.82 -1.27,0.64 -2.6,0.02 -2.74,1.93 -0.14,1.86 0.65,2.07 1.82,2.76 0.11,1.72 -0.62,1.46 -0.8,2.59 -0.57,3.58 3.51,1.25 3.8,3.27 0.19,1.35 -0.35,2.32 0.97,2.69 1.4,0.4 1.79,-0.35 2.63,-0.68 1.86,-0.73 1.93,1.53 3.49,1.64 1.43,0.1 1.34,-0.7 1.9,-1.59 1.54,-2.44 2.75,0.22 4.93,-1.43 0.08,-1.28 -0.2,-1.79 -0.15,-2.89 0.05,-1.42 0.63,-1.22 1.54,-1.76 0.65,-0.38 1.11,-1.34 0.69,-2.29 -0.22,-0.5 -1.24,-1.15 -1.7,-1.46 -0.18,-2.15 1.7,-2.33 0.68,-4.26l-0.76 -1.09c0.28,-0.42 0.27,-0.45 0.67,-0.81l0.28 -0.23c1.98,-1.33 1.5,3.46 4.76,2.05 1.52,-0.65 0.47,-3.59 3.37,-1.35 0.86,0.66 1.36,0.66 2.64,0.59 0.34,-0.68 0.53,-1.93 0.9,-2.58 0.74,-1.31 3.54,0.99 4.82,-0.3 0.93,-0.94 -0.12,-2.16 0.76,-3.64 1.61,-0.12 3.09,0.42 3.72,-0.89 0.74,-1.53 -0.64,-2.19 -0.46,-3.86 1.82,-0.87 2.96,0.14 3.44,-1.61 0.64,-2.3 -1.54,-2.5 -1.35,-3.73 0.51,-1.33 2.15,-0.82 2.47,-2.6 0.46,-2.57 -2.01,-1.39 -2.3,-2.95 -0.35,-1.87 1.78,-0.98 1.41,-3.75 -0.11,-0.86 -0.43,-1.16 -1.3,-1.35 -1.23,-0.27 -2.84,-0.41 -1.49,-2.46 0.41,-0.62 0.25,0.01 0.4,-0.85 0.66,-3.84 -6.02,0.05 -4.15,-3.91 0.17,-0.36 0.25,-0.58 0.65,-0.73 0.23,-0.09 0.35,-0.1 0.54,-0.14 1.69,-0.34 1.38,-0.2 2.19,-1.61 0.9,-1.57 2.04,-0.7 4.04,-0.78 1.7,-2.28 0.26,-1.72 0.54,-4.19 0.48,-0.34 0.5,-0.31 1.06,-0.55 0.51,-0.22 0.82,-0.45 1.2,-0.72 0.29,-3.38 -0.65,-2.14 -1.42,-3.41 -0.81,-1.34 0.86,-1.17 0.77,-3.92 -0.44,-0.36 -0.41,-0.49 -0.89,-0.69 -1.64,-0.68 -2.25,0.53 -2.79,-2.25 -0.73,-3.76 -3.41,-0.84 -4.24,-0.8 -1.35,0.07 -1.18,-1.98 -3.44,-1.6 -1.65,0.27 -1.16,2.48 -2.46,2.72 -0.72,0.14 -1.42,-0.69 -3.02,-0.14 -0.94,2.03 0.96,3.92 -1.37,4.57 -0.84,0.23 -1.47,0.34 -1.62,1.14 -0.39,2.16 2.31,2.58 1.89,3.78 -0.28,0.81 -1.48,1.5 -0.56,2.82 0.39,0.56 1.05,0.76 0.8,1.5 -0.52,1.57 -1.93,2.15 -3.51,0.04 -0,-0 -0.3,-0.37 -0.31,-0.38 -0.77,-0.68 -1.91,-0.36 -2.59,0.27l-0.42 0.51c-0.34,0.44 -0.49,0.36 -0.6,0.91 -2.45,0.05 -1.54,-1.8 -3.62,-1.68 -1.76,0.11 -1.82,2.04 -2.41,3.13 -1.46,0.61 -1.6,-1.18 -3.54,-0.57 -1.54,0.49 -1.12,1.83 -1.2,3.6 -1.43,1.04 -2.89,-0.24 -3.93,0.99 -1.29,1.54 0.26,2.43 0.18,3.97 -1.09,0.59 -2.82,0.51 -3.24,1.97 -0.6,2.08 1.23,1.98 1.02,4.07 -1.24,0.68 -2.24,1.04 -2.11,2.62 0.13,1.73 3.44,2.01 2.2,3.69 -0.38,0.51 -0.66,0.09 -0.62,1.09z"/>
   <path class="fil6 str0" d="M95.1 58.59c-1.04,1.73 -1.13,1.83 -1.11,4.5 0.03,4.09 -0.28,27.17 0.19,28.32 0.33,0.82 0.71,1.06 1.79,1.09l17.04 -0.01c0.87,0.11 1.32,0.6 2.06,0.84 1.2,0.39 4.01,0.18 5.55,0.18 4.85,-0.02 1.92,-0.79 4.99,-0.75 3.79,0.05 7.59,0.01 11.38,0.01 5.29,0 8.5,1 7.91,-3.43 -0.48,-3.57 0.16,-27 -0.17,-28.11 -0.1,-0.35 -1.45,-2.56 -2.95,-2.77 -1.74,-0.24 -3.68,-0.1 -5.15,-0.55 -0.86,-0.27 -0.11,-0.2 -1.03,-0.35 -2.6,-0.42 -2.16,-0.32 -4.59,-1.1 -2.27,-0.73 -0.39,-0.33 -3.55,-0.78 -2.7,-0.39 -4.79,0.27 -6.9,1.48 -0.72,0.42 -0.88,0.84 -2.3,0.52 -1.29,-0.29 -1.75,-1.05 -3.87,-1.83 -1.06,-0.38 -2.53,-0.48 -3.78,-0.37 -1.11,0.1 -0.3,0.16 -1.22,0.3 -0.54,0.08 -0.84,0.04 -1.25,0.16 -0.89,0.26 -1.14,0.68 -3.13,1.15 -1.64,0.38 -3.15,0.54 -4.67,1.03 -1.49,0.48 -3.41,0.4 -5.25,0.48z"/>
   <path class="fil3" d="M157.37 126.73c-0.57,0.13 -0.87,0.09 -1.5,0.26 -3.27,0.92 -3.42,0.69 -5.85,2.57 -0.26,0.2 -0.37,0.24 -0.61,0.42l-3.58 4.01c-0.56,0.83 -0.99,1.51 -1.43,2.35 -0.76,1.43 -1.09,4.55 -0.9,6.75 0.07,0.77 0.17,2.57 0.42,3.22 0.14,0.37 0.42,0.89 0.61,1.28 0.02,0.04 0.04,0.08 0.06,0.12l2.15 3.38c2.88,3.32 0.87,1.1 3.57,3.17 2.28,1.74 0.79,0.01 2.52,1.42l0.41 0.3c1.53,1.05 4.79,1.13 6.68,1.01 2.06,-0.13 2.91,-0.7 4.3,-1.26 0.46,-0.19 0.96,-0.23 1.48,-0.45 1.34,-0.59 4.44,-3.65 5.02,-4.5l1.48 -2.3c0.52,-0.74 1.77,-5.83 1.28,-8.06 -0.91,-4.13 -1.32,-5.79 -4.34,-8.81 -0.18,-0.18 -0.25,-0.25 -0.43,-0.43 -1.46,-1.44 -1.06,-1.41 -3.38,-2.82 -0.74,-0.45 -0.9,-0.36 -1.79,-0.62 -1.71,-0.49 -1.49,-0.64 -2.87,-0.9 -0.63,-0.12 -1,-0.24 -1.62,-0.28 -1.09,-0.06 -0.93,-0.01 -1.68,0.16z"/>
   <path class="fil5" d="M89.1 149.63c0.02,0.55 -0.44,0.27 1.33,0.96 3.41,1.34 0.91,2.29 2.86,4.15 1.35,1.29 1.5,0.76 3.44,1.24 3.07,0.75 -1.24,2.84 5.22,4.2 3.24,0.68 3.86,-1.74 5.76,-0.57 0.95,0.58 0.78,1.15 3.05,1.71 1.08,0.26 1.31,0.26 1.8,0.75 0.6,0.43 0.31,-0.15 0.57,0.62 0.02,-0.41 -0.07,-1.28 -0.06,-1.34 0,-0.01 0.01,-0.05 0.02,-0.07 0.01,-0.01 0.03,-0.05 0.04,-0.07 0.2,-0.42 0.28,-0.17 0.32,-1 0.57,-0.1 0.74,0.04 0.83,-0.35 -0.38,-0.16 -0.16,-0.01 -0.38,-0.17 -0.49,-0.39 -0.07,0.08 -0.52,-0.56 0.15,-0.1 0.63,-0.35 0.69,-0.44 0,0.01 0.48,0.55 -1.2,0.38 -0.52,-0.05 -0.97,-0.25 -1.36,-0.44 -1.43,-0.68 -0.9,-0.73 -2.26,-1.2 -2.61,-0.9 -0.8,-2.41 -1.79,-5.19 -1.22,-3.42 -2.35,-2.09 -3.86,-2.98 -1.38,-0.82 -1.14,-3.7 -2.8,-4.26 -1.01,-0.34 -1.84,-0.16 -2.23,-1.2 -0.39,-1.05 0.08,-1.76 -0.77,-2.71 -0.76,-0.85 -1.4,-0.84 -2.01,-1.43 -1.17,-1.14 0.08,-2.29 -1.45,-3.9 -0.57,-0.6 -0.49,-0.16 -0.94,-0.8 -0.61,-0.85 -0.1,-2.01 -0.33,-3.16 -0.27,-1.35 -1.03,-1.14 -1.48,-1.93 -0.43,-0.74 0.1,-2.18 -0,-3.26l-1.84 -1.23c-0.05,-1.61 0.72,-1.86 0.75,-3.15 0.03,-1.5 -0.93,-1.46 -1.81,-2.02 -0.08,-1.65 0.8,-2.66 0.25,-4.21 -0.55,-1.54 -2.32,-0.46 -3.66,-0.51 -0.9,-0.95 -0.97,-2.48 -2.91,-2.19 -1.53,0.22 -1,1.63 -1.93,3.23 -1.78,0.15 -2.68,-0.26 -3.88,0.6 -0.35,3.16 1.73,2.92 2.28,4.94 -0.36,0.45 -3.14,1.88 -0.45,4.65 1.06,1.09 0.83,1.16 0.04,2.32 -0.61,0.91 -0.66,1.92 0.09,2.73 2.52,2.7 3.34,1.89 2.68,4.03 -0.67,2.18 1.56,3.45 2.63,4.39 0.02,1.16 -0.81,2.15 1.14,4.1 0.91,0.9 2.24,1.4 3.27,2.11 0.05,0.73 -0.06,2.27 0.21,2.81 0.44,0.86 -0.01,0.45 0.62,0.45z"/>
   <path class="fil7" d="M120.33 64.64c-0.01,5.4 0.15,12.37 -0.03,17.59 -0.18,5.21 2.33,0.95 10.26,2.95 2.88,0.73 2.08,0.66 3.19,0.98l3.26 0.7c0.78,0.2 3.03,1.19 3.31,-1.52l-0.03 -19.14c0,-3.61 0.73,-5.14 -3.14,-5.21 -0.68,-0.01 -2.97,-0.47 -3.73,-0.87 -0.88,-0.46 -1.75,-0.86 -2.81,-0.97 -2.73,-0.28 -4.66,-1.04 -7.57,-0.19 -3.12,0.91 -2.7,2.14 -2.71,5.68z"/>
   <path class="fil6" d="M170.86 142.05c-0,-4.5 0.13,-3.57 -2.12,-7.27 -0.56,-0.91 -0.77,-0.92 -1.48,-1.62 -1.05,-1.04 -2.15,-1.97 -3.58,-2.63 -2.57,-1.19 -8.29,-1.28 -10.53,0.1l-3.41 2.42c-0.02,0.03 -0.05,0.07 -0.07,0.1 -0.02,0.03 -0.06,0.07 -0.08,0.1 -1.18,1.35 -0.45,0.82 -1.28,1.83 -0.51,0.62 -1.03,0.98 -1.27,1.81 -0.46,1.62 -1.14,3.18 -1.14,5.15 0,1.31 0.08,1.72 0.48,2.67 1.01,2.38 -0.06,1.62 1.6,3.75l1.7 2.27 2.63 2.02c1.5,1.25 6.07,2.36 8.81,1.38 4.03,-1.44 0.57,0.51 5.3,-2.46 0.63,-0.4 0.41,-0.4 0.77,-0.82 0.41,-0.47 0.79,-0.39 1.57,-1.51 1.93,-2.77 2.1,-3.28 2.1,-7.3z"/>
   <path class="fil8" d="M97.81 63.43l0.02 19.31c0,1.39 -0.65,2.73 0.51,3.5l0.27 0.11c1.28,0.32 1.7,-0.22 3.06,-0.43 1.58,-0.25 2.12,-0.1 3.42,-0.79 1.51,-0.79 5.27,-1 7.09,-1 1.49,-0.01 3.09,0.76 4.35,0.2 0.35,-0.35 0.16,-3.33 0.17,-4.35l0 -15.52c-0,-3.6 0.79,-5.42 -4.86,-5.4 -6.59,0.02 -7.47,2.26 -11.37,2.24 -1.83,-0.01 -2.67,0.26 -2.66,2.13z"/>
   <path class="fil4" d="M121.57 83.69c0.79,0.34 1.5,0.22 2.36,0.01 3.72,-0.94 4.4,0.04 6.68,0.43 0.69,0.12 1.62,0.21 2.22,0.41 0.71,0.24 1.33,0.55 2.04,0.74 1.19,0.31 3.68,1.21 4.36,0.57 0.58,-0.92 0.06,-2.24 0.06,-3.27l0.06 -18.8c0.01,-0.43 0.04,-0.78 -0.09,-1.18l-0.47 -0.76c-2.11,-0.16 -4.66,0.07 -7.01,-1.15 -2.17,-1.14 -4.38,-1.01 -7.2,-0.98 -2.33,0.03 -3.13,0.28 -3.04,2.7 0.06,1.68 0.19,3.27 0.19,5.17l-0.02 13.75c-0.12,0.99 -0.57,1.26 -0.15,2.36z"/>
   <path class="fil6 str0" d="M95.12 90.85l1.03 0.37c0.25,0.02 0.91,-0.02 1.21,-0.02 2.91,-0.02 15.47,-0.18 16.37,-0 0.52,0.1 0.46,1.36 4.14,1.36 1.48,0 3.61,0.28 4.73,-0.57 0.03,-0.02 0.07,-0.06 0.1,-0.08 1.35,-1.04 5.19,-0.71 8.27,-0.71 2.41,0 9.1,0.19 11.38,0.01l0.91 -0.35c0.01,0.02 0.04,-0.12 0.05,-0.17 0.05,-0.25 0.07,-0.24 0.08,-0.53 0.02,-0.31 -0.1,-0.92 -0.11,-0.98 -0.24,-1.49 -0.17,-24.72 0,-25.78 0.07,-0.42 0.17,-1.37 0.04,-2.02 -0.06,-0.32 -0.19,-0.63 -0.3,-0.79 -0.4,-0.6 -0.79,-0.73 -1.5,-0.76 -0.37,-0.02 -0.86,0.01 -1.24,0.01 0.03,1.83 1.06,1.68 1.04,3.96l-0.05 18.79c0,2.68 0.55,5.52 -2.54,5.52 -1.06,0 -2.33,-0.56 -3.25,-0.81 -1.29,-0.34 -2.33,-0.12 -3.64,-0.5 -0.44,-0.13 -1.35,-0.25 -1.53,-0.34 -1.55,-0.76 0.19,-1.1 -5.38,-0.95 -1.09,0.03 -1.92,0.45 -2.93,0.79l-0.24 0.07c-0.47,0.09 -1.43,0.04 -1.68,-0.15l-1 -1.04 -0.34 0.23c-0.04,0.03 -0.1,0.07 -0.14,0.11 -0.44,0.37 -0.66,0.94 -1.29,1.03 -2.6,0.4 -2.11,-0.66 -3.38,-0.97 -0.43,-0.11 -1.11,-0.06 -1.57,-0.06 -3.5,0.03 -3.07,0.16 -5.68,1.14 -0.58,0.22 -0.13,0.08 -0.61,0.23 -1.9,0.56 -2.83,-0.13 -5.28,0.96l-0.84 0.43c-0.38,0 -1.87,0.06 -2.11,-0.03 -0.08,-0.03 -0.42,-0.42 -0.54,-0.56 -0.06,-0.07 -0.18,-0.21 -0.23,-0.28 -0.97,-1.24 -0.73,-2.73 -0.73,-4.47 0,-1.52 -0.2,-19.43 0.02,-20.45l0.92 -1.53c2.07,-1.75 3.27,-0.17 6.14,-1.44 0.9,-0.4 0.76,-0.32 1.03,-1.07 -3.9,0 -3.24,1.21 -7.94,1.22 -1.94,0.01 -1.37,0.81 -1.37,5.5 0,3.49 0.21,21.22 -0.02,23.21 -0.06,0.54 -0.36,1.91 0.02,2.48z"/>
   <path class="fil6" d="M149.16 141.71c0,3.53 0.85,5.01 2.76,7.14 1.37,1.52 4.4,2.72 6.61,2.72 2.39,-0 4.97,-1.12 6.53,-2.81 0.68,-0.74 1.69,-1.53 2.04,-2.58 0.95,-2.89 1.45,-4.48 0.18,-7.73 -0.95,-2.43 -2.48,-3.61 -4.67,-4.66 -3.39,-1.62 -4.47,-1.26 -7.53,-0.39 -2.54,0.73 -3.69,2.2 -4.92,4.43 -0.7,1.28 -1.01,2.03 -1.01,3.88z"/>
   <path class="fil4" d="M108.05 62.06c-0.01,0.05 -0.02,0.08 -0.02,0.16l-0.02 0.43c0,0.09 0.03,0.31 0.03,0.45 -1.37,-0 -1.45,0.31 -2.25,0.35 -0.42,0.02 -0.98,-0.04 -1.39,0.02 -1.42,0.22 0.79,0.31 -3.25,0.32 -0.44,1.09 -0.52,-0.01 -0.52,2.75l0.01 16.71c0.71,-0 0.89,0.08 1.38,-0.33l0.51 -0.69 4.48 -0.4c0.99,-0.2 0.85,0.07 0.86,-0.98 0.42,-0 0.3,0.02 0.68,-0.1l0.37 -0.15c0.75,-0.24 4.12,0.09 4.47,-0.27 0.35,-0.36 0.22,-15.29 0.19,-17.24 0,-0.13 -0.01,-0.41 -0.02,-0.52 -0.01,-0.07 -0.01,-0.11 -0.03,-0.17 -0.01,-0.07 -0.03,-0.11 -0.04,-0.17 -0.01,-0.06 -0.04,-0.12 -0.05,-0.17 -0.01,-0.05 -0.03,-0.11 -0.05,-0.17l-0.5 -0.14c-0.06,-0.01 -0.1,-0.02 -0.17,-0.03 -0.18,-0.02 -0.51,-0.02 -0.7,-0.02l-2.78 0.02c-0.48,0.04 -0.17,-0.04 -0.64,0.1l-0.54 0.23z"/>
   <path class="fil3" d="M149.85 141.71c0,0.91 -0.03,1.51 0.27,2.35l0.53 1.05c0.16,0.23 0.14,0.16 0.22,0.28 0.39,0.61 0.12,1.32 0.93,2.2 1.6,1.73 1.62,1.69 3.23,2.29 0.79,0.29 0.72,0.47 1.36,0.67 0.64,0.2 1.44,0.17 2.14,0.18 2.04,0 3.33,-0.77 4.74,-1.46 0.82,-0.4 0.67,-0.42 1.31,-0.98 1.88,-1.63 2.57,-3.4 2.66,-5.89 0.09,-2.38 -0.7,-4.48 -2.23,-6.15 -0.42,-0.45 -1.86,-1.71 -2.41,-1.91 -0.45,-0.16 -3.19,-0.78 -3.54,-0.79 -1.86,-0.08 -2.34,0.2 -3.78,0.57 -1.5,0.38 -1.7,0.9 -2.69,1.64 -1.73,1.32 -1.03,1.26 -1.72,2.63 -0.58,1.15 -1.02,1.55 -1.02,3.32z"/>
   <path class="fil6" d="M77.47 117.67c-0.24,1.88 0.66,2.54 1.69,3.26 0.36,0.25 0.35,0.24 0.68,0.55l0.17 0.17c0.02,0.02 0.06,0.06 0.09,0.08 0.68,0.6 1.79,0.89 1.31,2.11 -0.9,0.36 -3.78,-1.24 -3.32,1.09 0.03,0.18 0.26,0.67 0.39,0.86 0.33,0.47 0.8,0.84 1.25,1.14l0.06 1.66c-2.09,1.45 -1.18,2.52 0.42,3.89 2.11,1.82 2.22,1.54 5.09,0.94 1.4,-0.29 1.18,-0.75 2.16,-1.29 1.12,-0.61 0.82,0.04 1.93,-1.15 0.12,-0.13 0.09,-0.11 0.27,-0.26 0.73,-0.63 0.77,-0.64 1.09,-2.36 0.26,-1.42 -0.31,-1.83 -1.67,-1.77 -0.62,0.74 -0.77,1.75 -1.62,2.29 -1.42,0.9 -1.94,-0.6 -2.99,-0.07 -0.79,0.39 0.04,-0.14 -1.19,1.56 -0.94,0.06 -1.4,0.17 -1.94,-0.42 -0.51,-0.56 -0.61,-0.9 -0.6,-1.76 0.67,-0.29 2.46,-0.58 2.85,-0.94 1.7,-1.57 1.01,-0.59 2.96,-1.03 1.2,-0.27 1.68,-0.74 2.11,-1.65 0.35,-0.73 1.38,-1.86 0.76,-2.85 -0.73,-0.37 -1.67,-0.32 -2.11,0.29 -0.57,0.8 -0.22,1.09 -1.64,1.02 -0.55,-0.98 -0.58,-1.85 0.2,-2.28 0.23,-0.12 0.43,-0.11 0.74,-0.29 0.53,-0.3 0.58,-0.62 0.92,-1.17 0.67,-1.1 1.11,-1.06 0.93,-2.87 -0.37,-0.19 -0.23,-0.12 -0.43,-0.4 -3.57,-0.22 -2.67,1.86 -3.05,3.15l-0.75 1.34c-1.11,0.09 -1.05,-0.02 -1.93,-0.15 -0.09,-2.52 1,-1.53 1.56,-2.94 0.53,-1.32 0.19,-3.21 -0.9,-3.4 -1.62,-0.28 -1.21,2.15 -1.67,2.85 -0.51,0.79 -2.57,0.47 -3.86,0.79z"/>
   <path class="fil6" d="M89.1 149.63c0.51,-0.01 1.84,0.54 2.47,0.78 1.43,0.55 1.55,0.17 2.68,-0.08 1.03,-0.23 1.86,-0.05 2.66,-0.62 0.91,-0.64 0.41,-1.51 0.42,-2.68 1.28,-0.01 0.78,-0.07 1.16,0.96 0.16,0.43 0.54,0.82 0.82,1.24 0.68,1.01 1.08,2.28 0.33,3.4 -1.48,2.2 -6.77,-3.47 -6.52,0.29 0.07,1.1 1.23,1.95 2.33,2.09 -0.34,-0.8 -0.23,-0.15 -1.2,-1.22l-0.7 -1.22c1.4,-0.3 1.88,0.19 2.88,0.62l2.1 0.76c1.35,0.15 1.53,-0.78 1.74,-1.05 0.37,-0.45 0.24,0.18 0.69,-0.67l0.24 0.3c0.12,0.11 0.39,0.29 0.39,0.29 0.12,0.07 0.12,0.13 0.55,0.22 0.28,0.06 0.43,0.04 0.71,0.04l0.38 -0.55c0.04,-0.07 0.16,-0.3 0.23,-0.49 0.14,-0.39 0.23,-0.67 0.25,-1.03 0.62,-0.23 0.95,-0.35 1.45,0.11 0.42,0.39 0.79,0.81 1.02,1.51 0.09,0.27 0.61,4.16 -0.24,4.89l-1.46 0.94c-0.66,0.37 -3.74,0.21 -4.9,-0.39 0,-0.75 0.1,-0.99 0.15,-1.54 0.08,-0.87 -0.1,-1.01 -0.15,-1.73l-4.16 0.09c0.3,0.27 -0.05,0.05 0.39,0.21 0.12,0.05 0.31,0.09 0.43,0.11 0.25,0.05 0.55,0.07 0.91,0.11 3.44,0.4 0.93,1.89 2.18,3.16 0.5,0.5 3.92,0.99 5.33,0.39 0.45,-0.19 1.99,-0.83 2.17,-1.11 0.02,-0.04 0.05,-0.16 0.05,-0.13 0,0.02 0.04,-0.1 0.05,-0.14l-0.25 -4.79c-0.49,-1.99 -1.19,-2.47 -3.28,-2.33 -0.38,0.59 -0.44,1.05 -0.93,1.11 -0.24,0.03 -0.69,0.26 -0.65,-0.98 0.01,-0.51 0.12,-0.65 0.17,-1.07 0.09,-0.85 -0.11,-1.3 -0.34,-1.88 -1.29,-3.4 -2.03,-0.65 -3.29,-2.41 -0.19,-0.26 -0.28,-0.46 -0.39,-0.82 -0.18,-0.62 -0.08,-1.35 -0.26,-2.01 -0.43,-1.54 -1.54,-1.27 -3.01,-1.61 -0.43,-1.09 0.16,-5.1 -2.15,-4.69 -0.31,0.05 -0.42,0.07 -0.5,0.4 -0.05,0.21 -0.05,0.17 -0.08,0.44 -0.18,2.12 0.31,2.9 -1.02,4.15 -0.4,0.38 -0.59,0.69 -1.01,1.06 -1.94,1.71 -3.27,-1.01 -4.05,-1.21 -0.74,-0.2 -1.04,0.17 -1.44,0.49 -0.21,2.59 2.68,4.07 4.94,4.08 1.96,0.01 2.31,0.12 3.3,-1.13 1.31,-1.65 -0.76,-3.01 1.72,-2.97 0.02,2.62 -0.13,1.51 0.55,2.92 0.83,1.73 -1.11,4.31 -2.82,3.5 -1.17,-0.56 -0.56,-1.09 -2.57,-0.99 -1.03,1.42 -0.35,1.49 -0.5,2.85z"/>
   <path class="fil6" d="M152.63 123.56c-0.25,0.5 -0.59,3.98 -3.26,3.31l-1.85 -0.5 -0.09 3.34c2.59,0.1 2.26,-1.6 4.4,-2.26 0.87,-0.27 0.87,-0.38 1.51,-0.75 1.58,-0.9 5.54,-1.38 7.74,-0.77 1.49,0.42 5.17,1.79 6.16,2.76 0.64,0.62 0.5,0.44 1.32,0.93 1.32,0.79 4.32,5.03 4.8,6.45 0.67,1.94 1.83,5.38 1.42,7.53 -0.15,0.78 -0.6,0.96 -1.16,3.29 -1.13,4.7 -1.67,2.62 -3.22,5.89 -0.5,1.06 -0.84,0.71 -2.38,2.04 -1.6,1.37 -2.05,1.39 -2.39,2.35 0.75,0 1.75,-0.12 2.28,0.18 0.45,0.25 0.59,0.68 1.29,0.66 0,0 0.18,0.14 0.62,-0.18 0.66,-0.48 -0.14,-2.49 0.58,-3.59 0.02,-0.03 0.05,-0.06 0.07,-0.09 0.98,-1.28 1.83,-0.55 3.19,-0.59l-0.05 -3.57c2.28,-1.59 3.21,-0.43 3.4,-1.75 0.09,-0.61 -0.08,-0.62 -0.7,-1.2 -0.47,-0.45 -0.75,-0.93 -0.72,-1.7 0.06,-1.69 1.85,-1.39 2.27,-2.76 -0.31,-1.65 -1.82,-0.49 -2.13,-2.44 -0.34,-2.19 1.04,-2.08 1.07,-3.92 -1.19,-0.02 -1.6,0.26 -2.57,-0.89 -1.15,-1.36 0.53,-3.79 0.5,-4.48 -1.12,-0.35 -2.68,-0.02 -3.54,-0.4 -1.29,-0.57 -0.66,-1.92 -1.01,-3.16 -0.82,-0.32 -1.05,-0.15 -2.01,-0.11 -0.67,0.03 -0.91,0.02 -1.45,-0.39 -0.89,-0.68 -1.41,-1.54 -1.95,-2.34 -0.97,0.05 -0.91,0.3 -1.65,0.62 -1.08,0.47 -1.66,0.17 -2.36,-0.4 -1.15,-0.94 -1.18,-1.67 -2.16,-1.4 -0.94,0.25 -1.35,1.83 -2.81,1.85 -1.81,0.02 -1.24,-1.65 -3.15,-1.55z"/>
   <path class="fil5" d="M78.67 145.94c-0.7,0.58 -1.26,1.64 -1.61,2.49 -0.83,2.04 0.02,1.92 0.22,3.28 0.27,1.84 -0.71,1.93 -1.7,2.54 -0.92,0.57 -1.36,2.65 -3.82,1.14 -0.43,-0.27 -0.81,-0.5 -1.3,-0.76 -3.09,-1.64 -4.65,1.64 -2.53,3.57 2.32,2.11 3.88,3.66 7.09,2.52 1.89,-0.67 3.86,1.07 5.3,-0.2 0.92,-0.81 0.2,-2.22 0,-3.19 -0.88,-4.25 1.25,-4.07 1.53,-6.68 0.41,-3.71 -2.09,-5.64 -3.2,-4.72z"/>
   <path class="fil9" d="M154.41 140.67l0.01 2.94c-1.21,-0.06 -1.62,-0.41 -1.64,0.84 -0.04,2.38 1.61,2.77 2.21,3.07 0.55,0.27 0.3,0.27 0.81,0.38 0.39,0.08 0.99,0.05 1.4,0.05 0.43,-1.85 -0.35,-0.2 -0.35,-1.9 1.35,-0.04 5.01,-0.34 2.84,1.12l0.45 0.37c2.1,1.48 4.13,-1.73 4.39,-2.42 0.32,-0.85 0.39,-5.15 -0.06,-6.06l-2.38 -2.65c-0.67,-0.3 -1.81,-0.14 -2.61,-0.12 0.03,0.04 0.08,0.05 0.1,0.13l0.37 0.45c0.98,1.07 0.45,0.84 0.9,1.32l-4.48 0.09 1.02 -1.98c-1.77,-0.91 -4.61,1.11 -4.75,3.36 -0.09,1.45 0.48,1.04 1.77,1.01z"/>
   <path class="fil6" d="M170.13 141.71c0,-1.12 0.16,-2.51 -0.19,-3.46 -0.32,-0.86 -1.05,-1.3 -1.49,-2.29 -0.81,-1.85 -0.49,-1.02 -1.55,-2.1 -0.81,-0.83 -0.84,-1.31 -2.5,-1.46 -0.28,-1.14 -2.46,-2.15 -3.62,-1.21 0.08,0.58 0.06,0.43 0.33,0.73 0.26,0.29 1.16,0.56 1.65,0.78l0.24 0.11c1.39,0.62 1.23,0.46 2.19,1.53 1.51,1.7 2.03,1.8 2.95,4.41 0.82,2.32 1.19,3.71 0.09,6.1 -0.51,1.12 -0.36,1.78 -1,2.84 -0.5,0.83 -1.25,1.01 -1.93,1.82 -1.07,1.25 -3.09,2.22 -4.72,2.7 -0.9,0.26 -2.33,0.21 -3.44,0.16 -1.2,-0.05 -1.82,-0.55 -2.63,-1.12 -1.26,-0.88 -2.53,-0.85 -4.13,-3.3 -1.51,-2.32 -1.95,-2.63 -1.95,-6.07 0,-3.79 1,-3.67 1.76,-5.41 0.32,-0.74 0.42,-1.03 0.96,-1.43 1.93,-1.43 0.89,-1.64 3.47,-2.5 0.5,-0.17 1.68,-0.65 2,-1.04l0.35 -0.62c-1.81,-0.02 -2.59,-0.19 -3.66,0.78 -0.37,0.33 -0.5,0.61 -1.17,0.84 -1.19,0.41 -1.4,0.82 -2.43,1.95 -0.39,0.42 -0.51,0.74 -0.92,1.15 -1.45,1.46 -0.81,1.5 -1.8,4.66 -0.92,2.94 0.19,3.39 0.5,5.38 0.26,1.66 0.39,1.94 1.37,2.99 1.37,1.47 0.69,1.33 2.03,2.29l2.31 1.84c0.92,0.5 2.42,0.36 3.49,0.79 1.1,0.44 2.74,0.36 3.85,0 0.91,-0.3 2.71,-0.44 3.44,-0.88 0.31,-0.19 0.8,-0.71 1.1,-0.93 0.46,-0.33 0.88,-0.4 1.29,-0.81 2.67,-2.68 1.4,-1.54 2.65,-3.72 1.52,-2.64 1.09,-1.28 1.08,-5.49z"/>
   <path class="fil6" d="M166.42 114.42l-0.16 -0.81c0.74,-0.47 1.03,-1.28 2.56,-2.49 0.77,-0.61 1.46,-1.69 4.02,-1.06 0.39,0.1 1.21,0.49 1.74,0.69 1.9,0.71 1.45,0.13 2.19,1.57l1.65 2.4c0.3,0.78 0.34,3.62 -0.48,4.35 -2.7,2.38 -3.46,4.05 -6.42,3.53 -1.19,-0.21 -1,-0.33 -1.82,-0.83 -0.52,-0.33 -1.23,-0.55 -2.01,-0.55 -0.29,0.68 -0.36,1.61 -0.22,2.57 1.84,0.71 3.04,-1.56 4.83,0.57 0.33,0.39 0.7,0.66 1.4,0.65 1.28,-2.27 0.58,-2.46 4.15,-2.48 0.93,-0.01 1.13,-0.21 0.78,-1.63 -0.91,-3.65 3.13,-1.25 2.55,-3.79 -0.19,-0.85 -0.39,-0.14 -0.76,-1.11 -0.82,-0.73 -0.58,-1.26 -0.58,-2.26 0.06,-1.04 0.3,-0.56 0.33,-1.51 -1,-0.62 -1.83,-0.3 -2.8,-1.05 -0.44,-0.34 -0.48,-0.74 -0.62,-1.32 -0.15,-0.66 -0.07,-1.14 -0.63,-1.43 -0.04,-0.02 -0.11,-0.09 -0.13,-0.05 -0.02,0.04 -0.1,-0.04 -0.13,-0.05 -0.08,-0.01 -0.1,-0.17 -0.91,0.17 -2.2,0.9 -2.37,0.03 -3.28,-0.98 -1.12,-1.24 -1.89,-0.09 -2.25,1.27l-0.32 0.89c-0.13,0.23 -0.11,0.21 -0.23,0.35 -1.07,0.06 -2.43,-0.29 -3.1,0.06 -0.47,2.29 0.79,3.49 -1.44,4.04 -0.45,0.11 -0.9,0.22 -1.22,0.42 -0.21,1.81 2.66,1.17 1.5,3.94 -0.88,2.08 0.18,2.05 2.21,1.85 0.1,-1.7 -1.32,-3.81 -0.84,-5.38 0.23,-0.73 0.12,-0.37 0.45,-0.54z"/>
   <path class="fil3" d="M141 161.22c-0.28,0.34 1.2,0.37 -2.16,0.26 -1.14,1.94 0.95,3.01 -1.6,4.28 -2.87,1.42 0.19,1.9 0.58,2.68 0.17,2.17 -1.18,1.69 -0.94,3.74 0.35,0.22 0.55,0.34 1.14,0.35 1.2,0.02 2.37,-0.51 2.42,3.18 1.23,0.71 1.36,-0.49 2.93,-0.5 1.65,-0.02 1.53,0.95 2.75,1.39 1.58,-0.21 1,-1.38 1.98,-2.04 0.95,-0.64 2.26,0.03 3.46,-0.15 0.18,-1.24 -0.43,-1.97 -0.06,-3.13 0.37,-1.18 1.27,-1 1.88,-1.62 0.28,-1.83 -0.87,-0.9 -1.05,-2.75 -0.17,-1.73 0.58,-1.95 0.55,-2.99 -0.94,-0.63 -2.15,-0.26 -2.97,-1.72 -0.33,-0.58 -0.2,-0.76 -0.42,-1.36 -0.19,-0.52 -0.91,-1.22 -1.5,-0.85l-0.74 0.78c-0.74,0.65 -0.65,0.03 -0.67,1.16 3.05,0.95 2.1,0.54 3.86,3.06 0.75,1.07 1.74,4.65 0.42,5.79 -0.8,0.7 -1.15,0.9 -1.81,1.64 -0.42,0.47 -1.33,1.47 -1.81,1.66 -1.47,0.59 -3.92,0.28 -5.11,-0.76 -0.72,-0.63 -0.28,-0.1 -0.38,-0.68l-1.36 -0.49 -0.87 -1.09c-0.77,-1.28 -1.36,-3.56 -0.63,-5.34 0.62,-1.51 1.54,-1.36 2.52,-2.66 1.28,-1.68 1.85,-1.04 3.56,-1.79 0,-0.67 0.08,-0.74 -0.24,-1.25 -0.5,-0.8 -1.18,-0.62 -1.93,-0.59 -0.95,1.51 -0.87,1.99 -1.8,1.82z"/>
   <path class="fil6" d="M91.85 135.68c0.2,-0.33 0.88,-2.87 0.12,-4.1 -2.52,-0.28 -2.02,2.95 -4.22,3.93 -4.15,1.84 -2.87,0.94 -4.28,0.4 -2.19,-0.84 -2.47,2.63 1.51,3.38 1.74,0.33 3.85,0.07 4.77,-1.42l1.35 -1.74c0.44,-0.25 0.39,-0.12 0.76,-0.45z"/>
   <path class="fil6" d="M157.83 139.26c-3.19,1.15 -2.27,4.57 -0.88,5.41 0.68,0.41 1.67,0.43 2.48,0.18 1.39,-0.42 2.54,-1.97 2,-3.6 -0.29,-0.87 -1.4,-1.76 -2.31,-2.05 -0.27,-0.08 -0.23,-0.11 -0.59,-0.1 -0.63,0.01 -0.41,0.06 -0.71,0.16z"/>
   <path class="fil3" d="M171.69 113.45c-1.48,0.39 -2.88,1.36 -2.58,3.23 0.23,1.45 1.52,2 1.52,2 0.59,0.26 1.04,0.44 1.87,0.4 3.47,-0.17 3.07,-6.66 -0.81,-5.64z"/>
   <path class="fil3" d="M144.22 165.29c-4.06,1.95 -1.89,5.69 1.41,5.36 3.79,-0.39 1.86,-6.92 -1.41,-5.36z"/>
   <path class="fil6" d="M157.85 140.32c-1.34,0.55 -1.51,1.75 -1.14,2.69 1.13,2.89 6.06,-0.64 2.79,-2.6 -0.61,-0.36 -1.02,-0.35 -1.65,-0.09z"/>
   <path class="fil6" d="M171.57 114.56c-0.72,0.21 -0.71,0.03 -1.09,0.66 -0.86,1.45 0.54,3.02 2.16,2.71 0.92,-0.17 1.43,-1.06 1.27,-2.26 -0.18,-1.31 -1.35,-1.42 -2.35,-1.12z"/>
   <path class="fil10" d="M144.23 166.35l-0.16 0.2c-0.2,0.22 -0.06,0.08 -0.25,0.27 -3.03,3.2 4.38,4.22 2.89,0.53 -0.02,-0.06 -0.32,-0.54 -0.33,-0.55 -0.45,-0.5 -0.86,-0.55 -2.15,-0.46z"/>
   <line class="fil11" x1="141.77" y1="172.62" x2="141.77" y2= "172.62" />
   <line class="fil11" x1="166.42" y1="114.42" x2="166.42" y2= "114.42" />
   <path class="fil6 str0" d="M174.22 178.66c-0.89,0.25 -1.95,1.65 -2.33,1.94 -0.33,0.25 -0.51,0.27 -0.86,0.54 -0.81,0.63 0.05,0.25 -1.55,1.23 -0.32,0.2 -0.47,0.36 -0.77,0.58 -0.45,0.34 -0.45,0.39 -0.96,0.39 -0.12,0.52 0.08,-0.01 -0.15,0.37 -0.3,0.49 -3.05,2.55 -3.76,3 -0.53,0.33 -0.83,0.62 -1.41,0.99 -0.61,0.38 -0.96,0.39 -1.53,0.86 -0.75,0.61 -0.96,0.51 -1.72,0.91l-0.98 0.59c-0.26,0.11 -0.31,0.11 -0.48,0.19l-0.59 0.42c-0.02,0.02 -0.06,0.05 -0.09,0.08 -1.6,1.41 -2.59,1.02 -3.22,1.6 -0.9,0.85 -1.35,0.87 -2.46,1.24 -0.04,0.01 -0.08,0.03 -0.12,0.04 -0.04,0.02 -0.08,0.03 -0.12,0.05l-0.64 0.23c-0.66,0.25 -0.2,0.09 -0.76,0.41 -1.78,1 -2.59,1 -4.41,1.66 -0.41,0.15 -0.54,0.16 -0.95,0.28 -0.64,0.19 -1.14,0.53 -1.89,0.7 -0.87,0.2 -2.09,0.14 -2.95,0.61l-0.76 0.45c-1.39,0.74 -5.96,1.34 -8.06,1.65 -2.75,0.41 -5.77,0.95 -8.7,1 -1.6,0.02 -3.22,0.03 -4.82,0.02 -4.12,-0.04 -5.31,-0.14 -9.03,-0.88 -3.83,-0.76 -6.32,-0.68 -10.07,-2.04 -1.59,-0.58 -2.39,-0.2 -5.61,-1.65 -1.48,-0.67 -2.58,-0.76 -4.2,-1.65 -0.89,-0.49 -1.87,-0.61 -2.59,-1.23l-1.03 -0.66c-1.17,-0.69 -1.85,-0.76 -2.96,-1.34 -0.34,-0.18 -0.46,-0.28 -0.74,-0.52 -0.75,-0.64 -1.31,-0.45 -2.08,-1.03l-4.14 -2.58c-0.66,-0.57 -1.54,-0.82 -2.18,-1.44 -0.82,-0.8 -1.41,-0.85 -2.14,-1.48 -0.89,-0.77 -1.84,-1.33 -2.67,-2.16 -1.12,-1.12 -2.26,-1.88 -3.18,-3.06l-0.48 -0.49c-0.71,-0.48 -3.46,-2.75 -3.89,-3.35l-7.46 -9.64c-0.39,-0.54 -0.52,-1.08 -0.91,-1.51 -0.68,-0.74 -0.56,-0.18 -1.01,-1.35 -0.3,-0.76 -0.44,-0.97 -0.83,-1.62 -0.53,-0.89 -1.06,-1.23 -1.39,-2.17 -0.32,-0.92 -0.93,-1.42 -1.29,-2.35 -0.22,-0.58 -0.38,-1.3 -0.58,-1.88 -0.45,-1.34 -1.26,-1.44 -1.61,-3.16 -0.2,-1 -0.1,-1.2 -0.6,-1.89 -0.13,-0.18 -0.52,-0.64 -0.53,-0.65 -0.49,-0.79 -0.7,-1.96 -0.9,-2.82l-0.53 -1.93c-0.17,-0.44 -0.5,-1.51 -0.58,-1.83 -0.18,-0.69 -0.33,-1.32 -0.42,-2 -0.19,-1.41 -0.54,-2.72 -0.86,-3.98 -1.85,-7.23 -1.67,-19.58 -0.46,-27.12 0.25,-1.57 0.54,-2.58 0.86,-3.97 0.33,-1.43 0.39,-2.71 0.72,-4.14l2.46 -7.15c0.43,-0.76 0.48,-0.78 0.68,-1.77 0.16,-0.77 0.25,-1.32 0.5,-1.92l5.16 -9.44c0.39,-0.95 0.25,-0.84 0.85,-1.57 0.44,-0.54 0.75,-0.76 1.04,-1.36 1.01,-2.02 4.6,-6.49 6.25,-8.41 0.99,-1.15 1.25,-1.52 2.36,-2.46 1.54,-1.31 3.85,-4.18 6.1,-6.13 0.18,-0.15 0.44,-0.29 0.7,-0.52l1.97 -1.63c0.11,-0.08 0.15,-0.11 0.3,-0.22l6.78 -4.74c1.51,-0.64 2,-1.43 2.98,-1.84 2.13,-0.89 2.47,-1.56 3.92,-2.1 0.36,-0.14 0.58,-0.2 0.89,-0.32 0.76,-0.3 0.91,-0.55 1.52,-0.92 0.1,-0.06 0.22,-0.13 0.32,-0.19 0.82,-0.48 1.63,-0.45 2.5,-0.96 0.03,-0.02 0.07,-0.05 0.1,-0.07 0.87,-0.51 4.59,-1.36 6.05,-2.05 2,-0.94 5.76,-1.43 7.91,-2.24 1.33,-0.51 -0.81,0.07 0.47,-0.16l4.17 -0.66c1.36,-0.3 8.32,-0.65 10.07,-0.74l7.07 0.28c1.04,0.13 1.19,0.3 2.04,0.37 1.69,0.14 5.11,0.36 6.52,0.81l1.72 0.51c1.29,0.37 2.44,0.68 3.94,0.9 1.47,0.22 8.12,2.27 9.46,3.09 0.8,0.49 2.95,1.17 4.79,2.12l2.29 1.27c1.22,0.61 2.57,1.17 3.66,2.05 0.63,0.51 0.85,0.53 1.59,0.85l0.71 0.47c1.14,0.95 2.66,1.52 3.64,2.4 0.3,0.27 0.36,0.34 0.7,0.54l2.21 1.57c0.04,0.02 0.08,0.05 0.12,0.07l0.33 0.2c1.15,0.78 0.88,1.09 1.97,1.96 1.07,0.85 1.68,1.29 2.6,2.21 0.86,0.85 1.87,1.42 2.62,2.37l1.21 1.2c0.03,0.04 0.12,0.15 0.21,0.29 0.93,1.37 1.34,1.24 2.11,2.2 0.45,0.56 0.94,0.82 1.3,1.44l0.38 0.53c0.21,0.23 0.38,0.36 0.62,0.59 0.82,0.79 0.24,0.84 0.88,1.54 0.85,0.93 0.37,0.12 1.26,1.62 0.3,0.51 0.59,0.57 0.94,0.98 0.11,0.12 0.43,0.61 0.48,0.69 0,0 0.16,0.34 0.16,0.35 0.68,1.48 1.53,1.92 2.01,3.48l3.34 6.37c0.08,0.26 0.12,0.62 0.26,0.98 0.29,0.77 1.06,1.63 1.35,2.41 0.26,0.69 0.23,1.29 0.43,2.05 0.26,0.95 1.25,1.89 1.6,3.15 0.45,1.64 0.45,2.2 1.14,3.69 0.53,1.13 0.67,2.35 0.91,3.91 0.42,2.74 1.44,5.09 1.64,7.97 0.32,4.65 0.63,9.41 0.51,14.14l-0.78 8.84 -1.77 7.83c-0.32,1.21 -0.99,2.2 -1.3,3.53 -0.37,1.59 -0.33,2.47 -1.13,3.69 -0.92,1.4 -0.71,2.3 -1.39,3.61 -0.59,1.16 -1.18,2.11 -1.57,3.24 -0.54,1.58 -1.21,1.64 -1.64,3.22 -0.47,1.7 -1.18,1.73 -1.76,3.08 -0.71,1.66 -3.7,5.51 -4.98,7.23 -0.42,0.56 -0.52,0.95 -0.91,1.53l-2.23 2.58c-0.53,0.54 -2.03,2.13 -2.32,2.86 1.28,0.02 2.89,-2.86 3.74,-3.7 0.71,-0.7 0.64,-0.15 1.34,-1.21 0.86,-1.29 3.61,-5.1 4.02,-6.07 0.26,-0.62 0.64,-0.86 1.02,-1.34 0.55,-0.71 0.81,-1.65 1.39,-2.39 1.17,-1.5 0.59,-1.07 1.32,-2.5 0.77,-1.5 1.38,-1.06 1.81,-3.13 0.33,-1.58 1.27,-1.62 1.68,-3.31 0.78,-3.19 0.59,-1.63 1.39,-3.46 0.46,-1.05 0.56,-2.83 1.03,-4.02 0.61,-1.53 0.98,-1.96 1.24,-3.74 0.49,-3.19 1.4,-5.11 1.69,-8.39 0.42,-4.78 0.93,-9.14 0.79,-14.17 -0.09,-3.09 -0.58,-5.92 -0.71,-9.13 -0.06,-1.61 -0.33,-2.97 -0.81,-4.18 -0.53,-1.35 -0.76,-2.4 -1.03,-3.9 -0.16,-0.87 -0.2,-1.38 -0.41,-2.04 -0.48,-1.56 -0.75,-1.59 -1.29,-3.72 -0.15,-0.57 -0.19,-1.58 -0.43,-2.25 -0.54,-1.53 -1.08,-1.36 -1.48,-3.53 -0.31,-1.68 -1.15,-1.79 -1.62,-3.39 -0.69,-2.34 0.19,-1.18 -1.36,-2.92 -0.74,-0.83 -0.98,-2.23 -1.76,-3.25l-0.23 -0.3c-0.46,-0.71 -0.27,-0.97 -0.97,-1.56 -1.12,-0.94 -1.4,-2.61 -2.49,-3.74l-1.65 -2.16c-0.03,-0.04 -0.2,-0.25 -0.24,-0.29l-3.03 -4c-0.22,-0.2 -0.47,-0.33 -0.67,-0.57 -0.9,-1.09 -0.58,-0.88 -1.74,-2.04l-3.72 -3.66c-0.29,-0.24 -0.11,-0.04 -0.3,-0.26l-0.23 -0.34c-0.34,-0.55 -0.47,-0.48 -0.98,-0.85 -0.19,-0.14 -0.16,-0.14 -0.37,-0.31 -0.07,-0.05 -0.48,-0.33 -0.71,-0.49l-2.86 -2.12c-0.75,-0.45 -0.85,-0.8 -1.46,-1.15 -0.81,-0.47 -0.75,-0.27 -1.45,-0.99 -0.46,-0.48 -0.86,-0.72 -1.52,-1.04 -1.06,-0.52 -0.65,-0.51 -1.38,-1.23l-1.64 -0.76c-1.57,-0.85 -1.04,-1.26 -3.07,-1.87 -0.71,-0.22 -1.03,-0.52 -1.52,-0.98 -0.38,-0.36 -1.85,-0.87 -2.53,-1.18 -0.19,-0.08 -0.15,-0.05 -0.38,-0.17 -0.84,-0.42 -1.28,-0.79 -2.3,-0.97 -0.93,-0.16 -0.94,-0.3 -1.74,-0.69 -0.41,-0.2 -0.42,-0.23 -0.78,-0.45 -1.51,-0.91 -3.26,-0.84 -4.69,-1.68 -2.06,-1.22 -1.23,-0.75 -3.82,-1.1 -1.04,-0.14 -2.8,-0.85 -3.89,-1.15 -1.38,-0.39 -2.94,-0.35 -4.41,-0.58 -4.71,-0.75 -9.05,-1.28 -13.76,-1.23 -5.5,0.05 -5.42,0.76 -8.79,0.98 -1.46,0.1 -3.03,0.37 -4.5,0.52 -3.42,0.35 -4.78,1.38 -8.06,1.92 -1.38,0.22 -2.41,0.79 -3.66,1.33 -1.56,0.67 -2.33,0.22 -3.78,1.23 -0.57,0.4 -0.78,0.61 -1.53,0.86 -0.66,0.22 -1.45,0.3 -1.99,0.62l-6.27 3.09c-0.61,0.23 -0.9,0.56 -1.37,0.97 -0.63,0.54 -1.65,0.7 -2.13,1.14 -1.06,0.95 -2.74,1.85 -2.92,2.06 -0.95,1.15 -1.59,1.35 -2.73,2.3 -0.25,0.21 -0.37,0.32 -0.67,0.54l-2.11 1.68c-2.3,1.86 -3.16,2.92 -5.23,4.76l-2.39 2.44c-0.4,0.45 -0.76,0.79 -1.19,1.23 -0.58,0.58 -0.56,0.94 -1.04,1.55 -0.38,0.48 -0.72,0.67 -1.14,1.26l-2.2 2.8c-0.47,0.87 -0.42,0.93 -1.07,1.51 -0.58,0.52 -0.59,0.62 -0.98,1.42 -0.61,1.26 -1.31,1.82 -1.91,3.1 -0.34,0.72 -0.49,1.04 -0.93,1.66 -0.72,1 -1.11,2.15 -1.86,3.12 -0.79,1.03 -0.81,2.64 -1.58,3.43 -0.84,0.86 -0.75,2.39 -1.37,3.45 -0.3,0.52 -0.56,1.04 -0.84,1.56 -0.83,1.51 -0.62,2.78 -1.15,3.86 -1.93,3.9 -0.79,2.37 -1.8,5.73 -0.45,1.5 -0.91,2.2 -1.14,3.83 -0.19,1.3 -0.32,3.22 -0.45,4.54 -0.36,3.68 -1.14,10.13 -0.64,14 0.2,1.53 0.37,3.01 0.54,4.44 0.19,1.61 0.05,3.28 0.27,4.77 0.24,1.57 0.3,2.85 0.86,4.11 0.26,0.6 0.53,1.08 0.64,1.8 0.18,1.23 0.24,2.42 0.87,3.53 1.28,2.26 1.02,5.14 1.86,6.27l0.84 1.42c0.51,1.07 0.45,1.94 1.06,2.89l0.95 1.46c0.48,1.07 0.4,1.49 1.18,2.6 0.48,0.67 0.61,1.04 0.83,1.83 0.29,1.06 0.56,0.43 1.13,1.19 0.36,0.48 0.54,1.4 0.71,1.96 0.25,0.81 0.53,0.86 1.03,1.48l0.93 1.49c0.09,0.12 0.89,0.79 1.2,1.2 0.41,0.55 0.52,1.12 0.95,1.64 0.67,0.82 1.42,1.99 2.27,2.71l4.05 4.59c1.29,1.57 2.96,2.78 4.35,4.26 0.53,0.57 0.89,0.61 1.41,1.18 0.83,0.92 0.82,0.98 1.91,1.67 0.99,0.62 -0,0.43 2.25,1.58 0.68,0.35 0.86,0.78 1.4,1.18 0.49,0.36 0.99,0.55 1.5,0.91 0.57,0.42 0.8,0.77 1.45,1.13 0.62,0.34 1.01,0.45 1.54,0.88 0.67,0.55 0.63,0.65 1.52,1.05 1.29,0.58 2.18,1.46 3.12,1.87 2.97,1.27 2.08,1.62 5.09,2.31 0.74,0.17 1.06,0.58 1.7,0.92 1.25,0.66 2.46,0.55 3.68,1.32 1.09,0.69 5.84,1.88 7.59,2.42 1.79,0.55 4.22,0.75 6.02,1.36 0.68,0.23 1.29,0.3 2.15,0.42 4.62,0.67 14.7,0.72 19.35,0.19 4.22,-0.48 4.47,-0.48 8.59,-1.42 2.05,-0.47 4.01,-0.72 5.89,-1.54 0.95,-0.41 1,-0.31 2.04,-0.5 1.04,-0.18 1.06,-0.33 1.81,-0.63l1.89 -0.7c1.49,-0.47 2.95,-0.86 3.96,-1.79l0.17 -0.16c0.32,-0.23 2.53,-0.5 4.83,-2.08 1.1,-0.76 -0.9,0.24 0.4,-0.22 0.91,-0.32 1.05,-0.3 1.58,-1.12 0.02,-0.03 0.04,-0.08 0.06,-0.1 0.55,-0.78 1.73,-0.24 3.29,-1.67 0.02,-0.02 0.06,-0.06 0.09,-0.08 0.02,-0.02 0.07,-0.05 0.09,-0.08 0.01,-0.01 0.33,-0.2 0.42,-0.24l2.45 -1.69c0.98,-0.5 1.42,-0.59 2.21,-1.28l7.39 -6.25c0.34,-0.45 0.36,-0.38 0.42,-1.06z"/>
   <path class="fil6" d="M95.46 155.01l-0.02 -0.1 4.16 -0.09c0.05,0.73 0.23,0.86 0.15,1.73 -0.05,0.55 -0.15,0.79 -0.15,1.54 1.15,0.6 4.23,0.76 4.9,0.39l1.46 -0.94c0.85,-0.73 0.33,-4.62 0.24,-4.89 -0.23,-0.7 -0.6,-1.12 -1.02,-1.51 -0.5,-0.46 -0.83,-0.34 -1.45,-0.11 -0.02,0.36 -0.11,0.64 -0.25,1.03 -0.07,0.19 -0.19,0.42 -0.23,0.49l-0.38 0.55c-0.28,0 -0.43,0.02 -0.71,-0.04 -0.43,-0.09 -0.44,-0.15 -0.55,-0.22 -0,0 -0.27,-0.18 -0.39,-0.29l-0.24 -0.3c-0.45,0.86 -0.32,0.22 -0.69,0.67 -0.22,0.27 -0.39,1.2 -1.74,1.05l-2.1 -0.76c-1,-0.43 -1.49,-0.92 -2.88,-0.62l0.7 1.22c0.97,1.07 0.86,0.42 1.2,1.22z"/>
   <path class="fil12" d="M54.49 57.29c0.51,0.54 1.01,0.81 1.49,0.81 0.48,-0.01 1.02,-0.28 1.6,-0.83l0.21 -0.2 0.41 0.43 -5.56 5.22 -0.41 -0.43 0.21 -0.2c0.58,-0.55 0.89,-1.06 0.92,-1.55 0.03,-0.48 -0.2,-1 -0.71,-1.54l-8.59 -9.15c-0.51,-0.54 -1.01,-0.81 -1.49,-0.81 -0.48,0 -1.02,0.28 -1.6,0.83l-0.21 0.2 -0.42 -0.45 5.56 -5.22 0.42 0.45 -0.21 0.2c-0.58,0.55 -0.89,1.06 -0.93,1.55 -0.03,0.48 0.2,1 0.72,1.54l4.31 4.59c0.42,-0.39 0.71,-0.97 0.87,-1.73 0.16,-0.77 0.23,-1.89 0.19,-3.36 -0.04,-1.3 -0.13,-2.41 -0.29,-3.3 -0.16,-0.9 -0.34,-1.47 -0.57,-1.7 -0.25,-0.26 -0.53,-0.36 -0.86,-0.31 -0.32,0.06 -0.8,0.31 -1.45,0.77l-0.39 -0.41 5.44 -5.11 0.39 0.41c-0.48,0.57 -0.85,1.07 -1.12,1.52 -0.26,0.45 -0.44,0.87 -0.53,1.26 -0.06,0.27 -0.08,0.6 -0.06,0.98 0.01,0.38 0.1,1.01 0.24,1.88 0.18,1.23 0.3,2.38 0.34,3.45 0.04,1.06 0.02,2.1 -0.08,3.13 0.37,-0.11 0.73,-0.18 1.1,-0.23 0.36,-0.05 0.72,-0.07 1.08,-0.06 1.03,0.03 2.43,0.19 4.17,0.49 1.75,0.3 2.98,0.47 3.7,0.5 0.7,0.03 1.28,-0.04 1.73,-0.19 0.45,-0.16 0.9,-0.44 1.34,-0.86 0.03,-0.03 0.09,-0.07 0.15,-0.12 0.07,-0.06 0.12,-0.1 0.16,-0.14 0.04,-0.04 0.07,-0.07 0.08,-0.09 0.02,-0.02 0.04,-0.05 0.06,-0.08l0.41 0.43 -5.95 5.59 -0.41 -0.43 0.3 -0.28c0.34,-0.32 0.55,-0.6 0.64,-0.83 0.09,-0.24 0.05,-0.44 -0.11,-0.62 -0.25,-0.27 -0.91,-0.51 -1.97,-0.71 -1.06,-0.21 -2.35,-0.35 -3.9,-0.43 -1.05,-0.06 -1.87,-0.02 -2.44,0.12 -0.58,0.14 -1.07,0.4 -1.48,0.79 -0.02,0.02 -0.05,0.04 -0.1,0.07 -0.05,0.03 -0.08,0.06 -0.1,0.07 -0.02,0.02 -0.04,0.05 -0.05,0.07 -0.01,0.02 -0.02,0.03 -0.02,0.04l3.74 3.99zm20.85 -11.89c-1.12,0.73 -2.29,1.26 -3.5,1.58 -1.22,0.32 -2.4,0.4 -3.56,0.27 -1.34,-0.16 -2.56,-0.58 -3.66,-1.25 -1.1,-0.67 -2.01,-1.56 -2.73,-2.66 -0.73,-1.12 -1.2,-2.35 -1.41,-3.68 -0.21,-1.34 -0.13,-2.68 0.22,-4.01 0.32,-1.25 0.86,-2.38 1.62,-3.42 0.76,-1.03 1.73,-1.93 2.91,-2.7 1.11,-0.73 2.29,-1.25 3.51,-1.57 1.23,-0.32 2.43,-0.42 3.62,-0.29 1.32,0.15 2.52,0.55 3.61,1.23 1.09,0.67 2,1.57 2.74,2.69 0.74,1.14 1.21,2.38 1.42,3.72 0.2,1.34 0.12,2.69 -0.26,4.04 -0.35,1.25 -0.89,2.37 -1.64,3.37 -0.75,1 -1.71,1.88 -2.89,2.65zm-0.17 -0.89c1.78,-1.16 2.82,-2.73 3.14,-4.72 0.32,-1.99 -0.17,-3.97 -1.47,-5.96 -0.64,-0.98 -1.37,-1.81 -2.17,-2.48 -0.8,-0.67 -1.68,-1.18 -2.64,-1.53 -1.18,-0.42 -2.36,-0.58 -3.53,-0.47 -1.16,0.11 -2.22,0.47 -3.17,1.09 -1.76,1.15 -2.82,2.71 -3.16,4.69 -0.35,1.98 0.1,3.91 1.34,5.81 0.64,0.98 1.41,1.84 2.28,2.58 0.87,0.74 1.77,1.28 2.68,1.61 1.15,0.43 2.32,0.59 3.5,0.48 1.18,-0.11 2.25,-0.48 3.21,-1.11zm26.72 -11.83c-0.95,0.89 -1.97,1.65 -3.09,2.29 -1.12,0.64 -2.29,1.14 -3.54,1.51 -1.24,0.37 -2.41,0.53 -3.5,0.48 -1.09,-0.04 -2.14,-0.29 -3.15,-0.74 -1.2,-0.54 -2.23,-1.32 -3.11,-2.33 -0.87,-1.02 -1.51,-2.19 -1.9,-3.51 -0.36,-1.22 -0.46,-2.48 -0.32,-3.79 0.14,-1.31 0.53,-2.53 1.16,-3.66 0.61,-1.12 1.43,-2.08 2.46,-2.88 1.03,-0.79 2.2,-1.39 3.53,-1.78 0.86,-0.25 1.93,-0.41 3.22,-0.46 1.29,-0.05 2.12,-0.14 2.5,-0.25 0.15,-0.05 0.31,-0.1 0.49,-0.17 0.17,-0.07 0.35,-0.15 0.52,-0.24l1.42 4.27 -0.76 0.25c-0.82,-1.34 -1.81,-2.25 -2.95,-2.72 -1.14,-0.47 -2.41,-0.5 -3.8,-0.09 -2.13,0.63 -3.66,1.92 -4.57,3.88 -0.92,1.95 -1.01,4.17 -0.28,6.64 0.74,2.5 1.98,4.29 3.74,5.38 1.76,1.08 3.76,1.29 6.01,0.63 0.78,-0.23 1.46,-0.52 2.02,-0.87 0.57,-0.35 1.07,-0.78 1.49,-1.29l-0.97 -3.29c-0.26,-0.88 -0.63,-1.42 -1.1,-1.59 -0.47,-0.18 -1.38,-0.08 -2.71,0.3l-0.18 -0.59 7.44 -2.19 0.16 0.6c-0.72,0.31 -1.17,0.64 -1.35,0.99 -0.18,0.35 -0.17,0.86 0.03,1.54l1.08 3.67zm8.88 -2.51c0.1,0.72 0.36,1.22 0.75,1.49 0.4,0.27 1,0.36 1.79,0.24l0.31 -0.05 0.09 0.61 -7.55 1.08 -0.09 -0.61 0.29 -0.04c0.79,-0.11 1.34,-0.36 1.65,-0.73 0.31,-0.37 0.41,-0.92 0.3,-1.65l-1.78 -12.42c-0.11,-0.74 -0.36,-1.25 -0.76,-1.52 -0.4,-0.27 -0.99,-0.36 -1.79,-0.24l-0.29 0.04 -0.09 -0.61 7.52 -1.07 0.09 0.61 -0.29 0.04c-0.79,0.11 -1.34,0.36 -1.65,0.73 -0.3,0.38 -0.4,0.93 -0.3,1.67l1.78 12.42z"/>
   <path class="fil12" d="M121.86 32.12l-0.26 -4.36 0.58 0.12c0.28,1.31 0.8,2.33 1.57,3.07 0.77,0.74 1.73,1.15 2.89,1.24 1.1,0.08 2.05,-0.17 2.84,-0.74 0.8,-0.58 1.23,-1.31 1.3,-2.2 0.1,-1.29 -0.98,-2.8 -3.23,-4.53 -0.18,-0.14 -0.32,-0.26 -0.41,-0.32 -0.03,-0.03 -0.09,-0.07 -0.17,-0.14 -2.17,-1.68 -3.43,-2.88 -3.8,-3.6 -0.23,-0.42 -0.39,-0.85 -0.49,-1.28 -0.09,-0.42 -0.12,-0.85 -0.09,-1.3 0.1,-1.26 0.65,-2.23 1.67,-2.93 1.02,-0.7 2.32,-0.99 3.91,-0.87 0.69,0.05 1.42,0.23 2.22,0.52 0.79,0.3 1.28,0.45 1.44,0.47 0.14,0.01 0.28,-0 0.44,-0.03 0.15,-0.03 0.31,-0.07 0.48,-0.12l0.21 3.72 -0.57 -0.02c-0.36,-1.14 -0.9,-2.03 -1.62,-2.68 -0.72,-0.65 -1.55,-1.01 -2.49,-1.09 -0.94,-0.07 -1.73,0.13 -2.37,0.59 -0.65,0.47 -1,1.09 -1.06,1.88 -0.09,1.22 1.07,2.74 3.48,4.58 0.04,0.03 0.07,0.05 0.07,0.06 0.08,0.06 0.2,0.15 0.37,0.27 1.53,1.15 2.6,2.11 3.21,2.87 0.36,0.45 0.63,0.95 0.8,1.5 0.18,0.55 0.24,1.11 0.2,1.66 -0.12,1.57 -0.75,2.75 -1.88,3.55 -1.14,0.8 -2.66,1.13 -4.56,0.99 -0.57,-0.05 -1.24,-0.21 -2.02,-0.5 -0.78,-0.29 -1.3,-0.45 -1.56,-0.47 -0.2,-0.02 -0.39,-0.01 -0.57,0 -0.18,0.02 -0.35,0.05 -0.52,0.09zm23.8 1.44c-0.21,0.71 -0.19,1.26 0.06,1.68 0.25,0.41 0.75,0.73 1.52,0.95l0.29 0.08 -0.18 0.59 -7.29 -2.14 0.17 -0.59 0.29 0.08c0.77,0.23 1.36,0.23 1.79,0.02 0.43,-0.21 0.75,-0.67 0.96,-1.38l3.99 -13.56 -3.74 -1.1c-1.05,-0.31 -1.8,-0.33 -2.24,-0.07 -0.44,0.27 -0.97,1.05 -1.58,2.34l-0.59 -0.18 1.79 -4.44 0.57 0.17c0.01,0.16 0.08,0.28 0.2,0.37 0.12,0.09 0.39,0.19 0.81,0.32l12.58 3.7c0.42,0.12 0.71,0.18 0.87,0.17 0.16,-0.01 0.28,-0.07 0.38,-0.19l0.54 0.16 -0.89 4.71 -0.6 -0.17c0.2,-1.41 0.18,-2.35 -0.05,-2.82 -0.23,-0.47 -0.87,-0.85 -1.92,-1.16l-3.75 -1.1 -3.99 13.56zm16.75 -1.12l4.44 2.35 0.95 -7.12 -5.39 4.76zm-9.95 4.91l0.28 -0.52c0.65,0.34 1.2,0.49 1.63,0.45 0.43,-0.04 1.06,-0.42 1.89,-1.14l11.03 -9.76c0.19,-0.17 0.35,-0.31 0.48,-0.45 0.13,-0.14 0.22,-0.27 0.29,-0.39 0.04,-0.07 0.07,-0.16 0.1,-0.26 0.02,-0.1 0.04,-0.22 0.05,-0.33l2.2 1.17 -2.15 16.24c-0.14,1.1 -0.13,1.85 0.03,2.25 0.16,0.4 0.49,0.73 0.99,1l0.26 0.14 -0.28 0.52 -6.9 -3.66 0.3 -0.51c0.02,0.01 0.04,0.02 0.07,0.04 0.38,0.24 0.64,0.4 0.8,0.48 0.6,0.32 1.08,0.48 1.43,0.48 0.35,-0 0.61,-0.17 0.79,-0.49 0.04,-0.08 0.08,-0.21 0.13,-0.4 0.05,-0.19 0.09,-0.42 0.13,-0.68l0.75 -5.54 -5.19 -2.75 -4.21 3.7c-0.18,0.17 -0.32,0.31 -0.44,0.45 -0.11,0.13 -0.2,0.25 -0.26,0.35 -0.17,0.33 -0.18,0.65 -0.01,0.94 0.17,0.29 0.53,0.58 1.07,0.87 0.14,0.07 0.4,0.19 0.78,0.35 0.03,0.02 0.05,0.03 0.07,0.04l-0.28 0.52 -5.81 -3.08zm26.55 11.74c-0.47,0.57 -0.67,1.09 -0.6,1.57 0.07,0.48 0.41,0.96 1.03,1.47l0.23 0.19 -0.39 0.48 -5.89 -4.79 0.39 -0.48 0.23 0.19c0.62,0.51 1.17,0.74 1.65,0.71 0.48,-0.03 0.95,-0.33 1.42,-0.9l8.92 -10.96 -3.03 -2.46c-0.85,-0.69 -1.53,-1 -2.04,-0.92 -0.51,0.08 -1.3,0.59 -2.36,1.55l-0.48 -0.39 3.37 -3.41 0.46 0.37c-0.05,0.15 -0.04,0.29 0.04,0.42 0.08,0.13 0.29,0.33 0.62,0.61l10.17 8.28c0.34,0.28 0.58,0.44 0.74,0.49 0.15,0.05 0.29,0.04 0.43,-0.03l0.44 0.36 -2.64 4 -0.48 -0.39c0.73,-1.23 1.07,-2.1 1.04,-2.62 -0.03,-0.52 -0.47,-1.12 -1.32,-1.82l-3.03 -2.47 -8.92 10.96zm4.68 7.42l0.46 -0.41 0.36 0.41c0.73,0.83 1.36,1.29 1.88,1.4 0.52,0.11 1.08,-0.11 1.68,-0.64l9.32 -8.28c0.56,-0.5 0.84,-0.98 0.85,-1.47 0.01,-0.48 -0.25,-1.02 -0.78,-1.62l-0.2 -0.23 0.46 -0.41 8.97 10.09 -2.9 2.86 -0.45 -0.5c0.82,-0.94 1.23,-1.7 1.23,-2.28 0,-0.58 -0.51,-1.45 -1.53,-2.6l-2.74 -3.08 -5.31 4.72 2.47 2.78c0.82,0.92 1.45,1.41 1.89,1.45 0.44,0.05 1.01,-0.17 1.71,-0.65l0.34 0.38 -4.13 3.67 -0.38 -0.42c0.64,-0.69 0.99,-1.24 1.02,-1.66 0.04,-0.41 -0.38,-1.11 -1.24,-2.08l-2.47 -2.78 -3.99 3.55c-0.72,0.64 -1.08,1.19 -1.08,1.66 0.01,0.47 0.38,1.12 1.13,1.96l1.59 1.79c0.84,0.95 1.6,1.47 2.29,1.56 0.69,0.1 1.59,-0.17 2.69,-0.82l0.39 0.44 -3.47 2.54 -10.07 -11.33z"/>
   <path class="fil5" d="M61.72 113.97l-1.16 0.2 -1.17 1.03 -0.05 0.11 -0.06 0.11c0,0 -0.02,0.12 -0.02,0.14 -0,0.02 -0.2,0.49 -0.2,0.49l-0.31 0.96 -0.16 0.71 -0.07 0.76 -0.04 0.6 -0.06 0.72 -0.61 -0.02 -0.67 -0.15 -0.57 -0.19 -0.65 -0.22 -0.61 -0.13 -0.23 -0.02 -0.45 0.05 -0.43 0.17 -0.7 0.61 -0.38 0.5 -0.29 0.44 -0.16 0.42 -0.07 0.47 0.05 0.77 0.31 0.82 0.54 1.39 0.39 0.88 0.37 0.54 0.44 0.35 0.52 0.31 0.5 0.4 0.17 0.38 -0.24 0.33 -0.28 0.18 -0.54 0.29 -0.59 0.41 -0.35 0.66 -0.13 0.79 0.06 0.9 0.39 1.22 0.76 1.2 0.84 1.21 0.61 0.83 0.36 0.69 -0.04 0.36 -0.4 0.47 -0.39 0.51 -0.26 0.72 -0.05 1.2 0.09 0.84 0.28 0.58 0.56 0.48 0.61 0.61 0.47 0.7 0.72 0.78 0.83 0.71 0.73 0.85 1.22 0.95 -0.08 1.03 -0.11 1.18 0.12 1.14 0.34 0.66 1.18 1.25 0.68 0.92 1.15 0.83 1.04 0.79 -0.07 1.1 -0.22 1.17 -0.04 0.81 0.2 0.51 0.83 0.69 0.75 0.88 0.69 0.78 0.74 0.36 0.73 0.79 0.4 0.35 0.92 0.37 0.71 0.22 0.81 0.39 0.23 0.74 0.06 0.83 -0 0.82 0.13 0.72 0.4 0.79 0.88 0.57 1.06 0.74 0.95 0.69 0.67 0.4 1.11 0.27 0.99 0.23 0.42 0.2 0.12 0.42 0.1 0.53 0.02 0.65 0 0.59 0.11 0.62 0.24 0.43 0.75 0.75 1.26 0.85 1.6 0.77 1.16 0.73 1.01 0.33 1.13 0.12 1.44 0.01 0.42 1.23 0.47 1.26 0.44 0.54 0.87 0.49 1.42 0.39 1.44 0.52 0.98 0.48 1.28 0.27 1.29 -0.18 1.23 -0.39 1.32 -0.48 0.73 -0.34 0.67 -0.6 0.75 -0.46 0.57 0.02 0.81 0.47 0.65 0.46 1.02 0.29 0.99 0.21 0.99 0.34 0.76 0.49 1.33 0.11 1.51 0.21 1.81 0.46 -1.86 -5.34 -0.69 0.06 -1.22 -0.04 -0.8 -0.25 -0.91 -0.57 -0.8 -0.48 -1.43 -0.62 -0.34 -0.16 -0.41 -0.34 0.01 -0.36 0.06 -0.43 0.17 -0.56 0.17 -0.51 0.05 -0.78 -0.32 -1.09 -0.52 -1.4 -0.54 -1.3 -0.79 -1.19 -0.83 -1.11 -0.81 -1.09 -0.8 -0.39 -1 -0.17 -0.79 -0.02 -1.54 0.01 -0.35 -1.08 -0.36 -0.95 -0.35 -0.5 -0.67 -0.72 -0.36 -0.47 -0.29 -0.48 -0.31 -0.52 -0.36 -0.44 -0.58 -0.39 -0.72 -0.27 -0.58 -0.15 -0.79 -0.15 -0.81 -0.1 -0.17 -0.46 -0.33 -0.9 -0.35 -0.96 -0.25 -0.79 -0.21 -0.51 -0.37 -0.61 -0.48 -0.47 -0.61 -0.56 -0.61 -0.49 -0.51 -0.33 -0.35 -0.1 -0.71 -0.14 -0.87 -0.43 -0.07 -1.16 -0.23 -1.32 -0.56 -1.52 -0.44 -0.91 -0.65 -0.61 -0.64 -0.39 -1.53 -0.67 0.02 -0.67 0.19 -0.81 0.26 -0.63 0.04 -0.62 -0.24 -0.89 -0.36 -0.93 -0.3 -0.72 -0.49 -0.83 -0.56 -0.25 -0.69 -0.42 -0.03 -1.04 0.05 -1.5 -0.14 -1.38 -0.46 -0.83 -0.69 -0.91 -0.85 -0.55 -0.87 -0.68 0.16 -1 0.48 -1.34 -0.02 -1.22 -0.34 -1.05 -0.83 -1.44 -0.49 -0.68 -1.52 -0.05 0.11 -2.01 0.11 -1.51 -0.09 -2.02 -0.24 -0.77 -0.4 -0.56 -0.9 -0.52 -1.24 -0.3 -0.86 0.03 -0.94 0.42 -0.63 1.06 -0.8 0.23 -0.55 -0.89 -0.39 -0.99 -0.52 -0.9 -0.6 -0.6 -0.79 -0.36 -0.9 -0.07z"/>
   <path class="fil6" d="M82.88 169.55c-0.82,0 -1.79,-0.17 -2.16,0.54 -0.11,0.21 -0.25,0.29 -0.16,0.9 0.13,0.95 1.76,1.78 2.57,2.21 1.38,0.72 4.02,1 5.73,0.17 0.1,-0.05 2.85,-2.02 3.22,0.1 0.15,0.86 -0.29,1.54 -0.73,1.84 -0.87,0.59 -1.46,-0.22 -1.69,1.04 -0.22,1.18 0.48,1.45 1.95,2.16 1.47,0.71 4.56,0.87 6.23,0.41 1.67,-0.47 1.31,-1.7 2.96,-1.83 0.87,-0.06 1.49,-0.05 2.1,0.29 0.54,0.3 0.78,0.55 1.37,0.88 1.66,0.94 2.51,0.59 3.68,1.16 0.84,0.41 0.85,0.49 2.09,0.46 0.02,-1.43 0.27,-0.98 -2.67,-2.01 -1.26,-0.44 -2.12,-0.55 -3.09,-1.19 -0.03,-0.02 -0.07,-0.05 -0.1,-0.07l-1.67 -0.76c-2.34,-1.57 -0.28,-4.9 -1.95,-7.32 -0.2,-0.3 0.01,-0.01 -0.23,-0.3 -0.87,-1.05 -2.06,-3.97 -3.71,-2.67 -0.82,0.65 0.19,3.22 -0.74,3.94 -1.1,0.85 -2.16,-0.66 -2.57,-1.47 -0.81,-1.59 1.37,-3.41 0.29,-5.67l-0.94 -1.45c-0.69,-0.88 -1.11,-2.12 -2.79,-1.73 -1.45,0.34 -1.13,1.93 -1.07,3.56 0.05,1.51 0.49,2.55 1.22,3.41 1.82,2.13 1.09,5.15 -3.06,4.08 -0.71,-0.18 -3.46,-0.68 -4.04,-0.68z"/>
   <path class="fil6" d="M92.02 168.61c-0.08,0.18 -0.2,0.38 -0.3,0.6 -0.11,0.21 -0.18,0.39 -0.28,0.61 -0.24,0.52 -0.44,0.68 -0.62,1.03 -0.68,0 -0.66,-0.02 -1.17,0.12 -2.86,0.83 -1.57,-0.31 -5.21,-0.3 -1.06,0 -1.94,-0.19 -2.58,0.35 0.09,1.26 -0.11,0.29 0.29,0.76l0.55 0.45c0.31,0.33 0.22,0.61 1.39,0.69 0.62,0.04 3.32,0.06 3.82,-0.05 0.06,-0.01 0.1,-0.02 0.15,-0.04 0.05,-0.02 0.09,-0.03 0.14,-0.05 0.06,-0.02 0.32,-0.13 0.37,-0.15 2.16,-0.78 2.92,-1.67 4.03,-0.62 0.29,0.28 0,0.2 0.47,0.39 0,4.46 -0.63,3.29 -2,3.78 0,0 -0.83,0.03 -0.59,0.86 0.11,0.38 -0.05,0.12 0.16,0.38 0.96,1.19 4.43,1.01 5.53,1.01 1.65,0.01 1.93,0.03 2.85,-0.95 0.89,-0.96 1.03,-0.75 2.49,-1.13 0.09,-1.08 -0.7,-1.47 -0.6,-3.09 0.06,-1.18 0.17,-2.42 -0.26,-3.48 -0.38,-0.95 -0.78,-1.35 -1.36,-2.23 -0.59,-0.88 -0.73,-1.75 -2.34,-1.65 -0.33,2.51 0.52,4.28 -1.05,4.58 -2.74,0.52 -1.77,-1.57 -3.86,-1.87z"/>
   <path class="fil6" d="M83.51 153.26c-0.65,0.54 -0.98,1.65 -0.83,2.91l0.21 1.19c0.12,0.4 0.03,0.1 0.15,0.38 0.19,0.42 0.51,0.89 0.6,1.26 0.45,2 -1.41,4.28 -3.35,4.3 -1.54,0.02 -5.47,-1.44 -6.4,0.12 -0.55,0.92 0.24,2.16 0.85,2.61 0.63,0.46 0.6,0.29 1.31,0.6 0.83,0.36 0.57,0.54 1.14,0.92 0.73,0.49 2.33,0.36 3.1,-0.01 1.03,-0.49 0.92,-1.1 2.58,-1.17 3.02,-0.13 4.94,2.04 3.63,-2.79 -1.03,-3.82 0.65,-3.33 0.56,-6.37 -0.05,-1.73 -1.55,-4.54 -3.13,-4.16 -0.4,0.1 -0.19,-0 -0.44,0.2z"/>
   <path class="fil6" d="M67.98 155.08c-1.25,1.88 0.32,2.86 2.04,3.98 2.39,1.56 1.56,1.85 5.19,0.64 1.99,-0.66 4.7,1.67 4.44,-0.89 -0.13,-1.26 -0.37,-1.04 -0.35,-3.48 0.02,-3.71 3.31,-3.93 1.5,-7.73 -0.51,-1.08 -2.1,-1.74 -2.65,0.59 -0.4,1.64 0.36,3.21 -0.02,4.63 -0.44,1.63 -1.54,1.52 -2.56,2.43 -3.38,3.02 -3.85,-0.57 -7.58,-0.17z"/>
   <path class="fil6" d="M62.26 147.23c-0.19,1.6 0.34,2.19 1.71,3.58 1.94,1.96 3.88,0.35 6.37,0.91 0.71,0.16 0.82,0.36 1.33,0.7 0.7,0.46 1.56,0.49 1.9,0.32 1.33,-1.44 0.45,-2.7 0.76,-4.78 0.08,-0.59 0.48,-1.2 0.83,-1.94 0.17,-0.37 0.28,-0.56 0.48,-0.89 0.64,-1.06 2.79,-1.4 2.07,-4.76 -0.37,-1.73 -1.75,-1.38 -2.38,-0.7 -1.11,1.18 0.11,1.4 -1.82,3.88 -0.24,0.31 -0.36,0.48 -0.61,0.77l-0.41 0.45c-0.02,0.03 -0.05,0.07 -0.08,0.09 -1.23,1.32 -1.56,-0.19 -2.83,1.66 -0.88,1.28 -1.2,1.71 -2.56,1.58 -0.74,-0.07 -0.54,-0.04 -0.89,-0.5 -0.29,-0.39 -0.47,-0.76 -1.73,-1.01 -1.15,-0.22 -1.55,0.16 -2.14,0.64z"/>
   <path class="fil6" d="M64.75 140.11c-3.08,0.07 -4.41,-2.05 -5.16,-2.18 -0.82,-0.14 -1.45,0.38 -1.87,0.66 -0.1,2.05 0.73,3.02 2.32,4.43 1.51,1.35 2.43,0.99 5.79,1.17 2.53,0.14 2.78,-1.18 3.55,-1.67 1.29,-0.83 1.36,0.22 2.74,-2.46 0.3,-0.59 0.28,-0.57 0.69,-1.03l2.29 -2.71c0.72,-1.25 -0.54,-4.84 -2.52,-2.87 -2.38,2.38 -0.82,5.05 -4.1,4.35 -0.48,-0.1 -0.73,-0.36 -1.03,-0.64 -0.6,-0.55 -1.79,-1.26 -2.01,0.23 -0.24,1.65 0.18,1.45 -0.68,2.73z"/>
   <path class="fil6" d="M69.79 118.43c-0.21,-0.31 -0.5,-0.76 -1.07,-0.84 -1.49,-0.23 -1.71,1.75 -2.13,2.32 -0.34,0.46 -0.67,0.65 -0.81,1.19 -0.07,1.54 0.17,2.9 -0.69,3.85 -0.78,0.87 -1.24,1.48 -2.7,1.18 -1.21,-0.25 -1.47,-1.79 -0.94,-2.89 0.71,-1.47 1.54,0.47 1.81,-4.8 0.07,-1.42 0.01,-1.61 -0.7,-2.56l-1.67 0.03c-1.56,2.42 0.2,5.25 -1.48,5.79 -1.76,0.56 -1.81,-0.72 -4.26,-0.45 -0.97,1.23 -0.51,2.3 0.29,3.27 1.16,1.4 1.68,1.32 2.81,1.84 0.49,0.22 1.09,0.66 1.52,0.9 1.39,0.78 3.17,1.7 2.03,4.2 -2.43,0.18 -1.67,-0.48 -3.02,-1.06l-0.78 -0.26c-1.97,-0.65 -3.17,0.34 -2.28,1.71 0.48,0.73 1.75,2.29 2.39,2.74 0.52,0.37 3.54,0.95 4.23,0.81 0.85,-0.17 1.32,-1.76 2.78,-2.32 1.59,-0.61 2.48,1.01 4.15,-0.7 1.72,-1.75 4.48,-3.77 2.6,-6.64 -1.51,-0.1 -2.12,1.4 -2.68,2.43 -0.31,0.57 -0.77,0.98 -1.39,1.23 -1.45,0.58 -3.32,0.03 -1.45,-3.35 0.71,-1.28 1.04,-1.2 1.93,-2.06 2.84,-2.74 1.69,-3.3 1.51,-5.56z"/>
   <polygon class="fil0" points="34.92,64.44 35.94,67.73 39.86,68.03 37.05,70.02 37.98,73.84 35.22,71.78 31.87,73.84 32.97,70.58 29.98,68.03 33.42,68.07 "/>
   <polygon class="fil0" points="27.36,79.26 28.38,82.55 32.3,82.85 29.49,84.84 30.41,88.66 27.65,86.6 24.3,88.66 25.41,85.4 22.42,82.85 25.86,82.9 "/>
   <polygon class="fil0" points="22,97.31 23.02,100.6 26.94,100.9 24.13,102.89 25.06,106.71 22.3,104.66 18.95,106.71 20.05,103.45 17.06,100.9 20.5,100.95 "/>
   <polygon class="fil0" points="204.55,69.22 203.53,72.51 199.61,72.81 202.42,74.8 201.5,78.62 204.26,76.57 207.6,78.62 206.5,75.37 209.49,72.82 206.05,72.86 "/>
   <polygon class="fil0" points="211.82,86.19 210.79,89.48 206.88,89.78 209.68,91.77 208.76,95.59 211.52,93.54 214.87,95.59 213.76,92.33 216.76,89.78 213.32,89.83 "/>
   <polygon class="fil0" points="216.08,103.13 215.06,106.41 211.14,106.72 213.95,108.71 213.03,112.53 215.78,110.47 219.14,112.53 218.03,109.27 221.02,106.72 217.58,106.76 "/>
   <path class="fil12" d="M24.92 134.09c0.95,-0.52 1.65,-1.17 2.1,-1.92 0.45,-0.75 0.64,-1.6 0.56,-2.54 -0.05,-0.64 -0.22,-1.26 -0.51,-1.86 -0.29,-0.6 -0.67,-1.1 -1.12,-1.5 -0.5,-0.42 -1.08,-0.73 -1.74,-0.94 -0.66,-0.2 -1.35,-0.27 -2.08,-0.22 -1.78,0.14 -3.19,0.73 -4.24,1.78 -1.05,1.05 -1.52,2.34 -1.41,3.86 0.07,0.94 0.36,1.76 0.87,2.48 0.51,0.72 1.23,1.32 2.16,1.79l-0.02 0.42 -2.76 -0.96 -0.02 -0.22c-0.03,-0.38 -0.16,-0.96 -0.38,-1.76 -0.22,-0.79 -0.35,-1.42 -0.39,-1.88 -0.08,-0.96 -0.02,-1.84 0.17,-2.64 0.19,-0.79 0.51,-1.51 0.96,-2.15 0.49,-0.71 1.1,-1.26 1.82,-1.67 0.72,-0.41 1.51,-0.64 2.37,-0.71 0.65,-0.05 1.3,0.01 1.95,0.17 0.65,0.17 1.26,0.44 1.84,0.82 0.85,0.54 1.53,1.25 2.05,2.12 0.52,0.87 0.82,1.83 0.89,2.86 0.03,0.43 0.02,0.91 -0.02,1.45 -0.05,0.53 -0.15,1.27 -0.32,2.2 -0,0.05 -0.01,0.11 -0.02,0.2 -0.03,0.24 -0.05,0.42 -0.04,0.54 0,0.06 0.01,0.12 0.03,0.18 0.01,0.06 0.03,0.12 0.05,0.18l-2.71 0.39 -0.05 -0.48zm-6.74 9.2c-0.2,-0.84 -0.25,-1.67 -0.17,-2.47 0.08,-0.81 0.29,-1.54 0.62,-2.21 0.4,-0.78 0.92,-1.42 1.57,-1.94 0.65,-0.51 1.39,-0.87 2.22,-1.06 0.84,-0.19 1.69,-0.2 2.54,-0.03 0.86,0.17 1.65,0.51 2.38,1.02 0.68,0.47 1.25,1.05 1.71,1.74 0.45,0.69 0.78,1.48 0.99,2.36 0.19,0.84 0.25,1.66 0.17,2.48 -0.08,0.81 -0.29,1.57 -0.63,2.25 -0.38,0.77 -0.9,1.41 -1.55,1.92 -0.65,0.51 -1.4,0.86 -2.24,1.06 -0.85,0.2 -1.71,0.21 -2.57,0.03 -0.86,-0.18 -1.66,-0.53 -2.39,-1.06 -0.68,-0.49 -1.24,-1.07 -1.68,-1.74 -0.44,-0.67 -0.76,-1.46 -0.96,-2.34zm0.58 0.1c0.31,1.33 1.03,2.32 2.16,2.95 1.13,0.64 2.44,0.78 3.94,0.44 0.74,-0.17 1.4,-0.42 1.98,-0.76 0.58,-0.34 1.09,-0.76 1.51,-1.26 0.52,-0.62 0.87,-1.3 1.07,-2.03 0.19,-0.73 0.21,-1.45 0.05,-2.16 -0.31,-1.32 -1.02,-2.31 -2.14,-2.96 -1.12,-0.65 -2.39,-0.81 -3.81,-0.48 -0.74,0.17 -1.43,0.44 -2.07,0.8 -0.64,0.37 -1.17,0.79 -1.57,1.26 -0.52,0.6 -0.88,1.27 -1.07,2.01 -0.2,0.74 -0.21,1.47 -0.04,2.19zm4.22 9.35c-0.44,0.17 -0.72,0.4 -0.83,0.69 -0.11,0.29 -0.08,0.67 0.12,1.16l0.07 0.17 -0.37 0.15 -1.56 -3.98 0.37 -0.15 0.07 0.18c0.19,0.48 0.42,0.79 0.7,0.92 0.28,0.14 0.64,0.12 1.08,-0.06l7.75 -3.04c0.38,-0.15 0.61,-0.32 0.67,-0.52 0.06,-0.2 0.02,-0.63 -0.14,-1.31l0.34 -0.13 1.04 2.65 -5.4 11.43 6.93 -2.72c0.45,-0.18 0.73,-0.41 0.84,-0.7 0.11,-0.3 0.08,-0.67 -0.11,-1.15l-0.07 -0.18 0.37 -0.15 1.56 3.98 -0.37 0.15 -0.07 -0.18c-0.19,-0.47 -0.42,-0.78 -0.7,-0.92 -0.28,-0.14 -0.64,-0.12 -1.09,0.05l-9.3 3.65 -0.19 -0.48 5.87 -12.49 -7.56 2.97zm6.8 15.24c-0.41,0.23 -0.66,0.5 -0.73,0.8 -0.07,0.3 0.02,0.68 0.28,1.13l0.09 0.16 -0.35 0.2 -2.43 -4.28 0.35 -0.2 0.09 0.17c0.26,0.45 0.53,0.72 0.83,0.81 0.3,0.09 0.65,0.02 1.06,-0.21l7.03 -4c0.42,-0.24 0.67,-0.51 0.73,-0.81 0.07,-0.3 -0.02,-0.68 -0.27,-1.13l-0.1 -0.17 0.35 -0.2 4.19 7.37 -1.96 1.27 -0.21 -0.38c0.5,-0.39 0.78,-0.75 0.84,-1.05 0.06,-0.31 -0.08,-0.77 -0.43,-1.38l-1.49 -2.62 -3.79 2.16 1.31 2.3c0.38,0.67 0.7,1.05 0.94,1.15 0.25,0.1 0.6,0.08 1.05,-0.07l0.15 0.27 -2.82 1.6 -0.16 -0.31c0.43,-0.34 0.67,-0.64 0.74,-0.88 0.06,-0.25 -0.09,-0.69 -0.46,-1.34l-0.05 -0.09 -1.31 -2.3 -3.5 1.99zm5.22 8.49c-0.39,0.27 -0.6,0.5 -0.63,0.69 -0.03,0.18 0.11,0.51 0.44,0.97l1.07 1.52c0.25,0.35 0.46,0.59 0.64,0.71 0.17,0.12 0.4,0.22 0.68,0.29 0.18,0.05 0.44,0.09 0.75,0.12 0.31,0.03 0.73,0.05 1.23,0.06l0.21 0.34 -3.01 0.42 -4.75 -6.74 0.33 -0.23 0.11 0.15c0.3,0.42 0.6,0.67 0.9,0.73 0.3,0.07 0.65,-0.04 1.04,-0.31l6.61 -4.66c0.39,-0.28 0.61,-0.57 0.65,-0.88 0.04,-0.31 -0.09,-0.67 -0.38,-1.1l-0.11 -0.15 0.33 -0.23 3.07 4.36 -0.33 0.23c-0.03,-0.05 -0.06,-0.11 -0.1,-0.16 -0.04,-0.06 -0.1,-0.15 -0.17,-0.26 -0.32,-0.46 -0.64,-0.73 -0.96,-0.8 -0.32,-0.07 -0.67,0.03 -1.07,0.31l-6.54 4.62zm14.02 2.3l-0.3 0.26 -0.13 -0.14c-0.34,-0.38 -0.66,-0.59 -0.97,-0.62 -0.31,-0.03 -0.65,0.11 -1.01,0.43l-3.66 3.24c-0.57,0.5 -0.97,0.93 -1.21,1.3 -0.24,0.37 -0.4,0.76 -0.47,1.18 -0.1,0.55 -0.04,1.12 0.17,1.71 0.22,0.59 0.57,1.17 1.06,1.73 0.52,0.58 1.07,1.03 1.67,1.33 0.59,0.3 1.17,0.43 1.71,0.39 0.4,-0.03 0.8,-0.15 1.2,-0.38 0.41,-0.22 0.94,-0.63 1.6,-1.22l3.45 -3.05c0.36,-0.32 0.54,-0.64 0.55,-0.95 0.01,-0.31 -0.16,-0.66 -0.5,-1.05l-0.13 -0.14 0.3 -0.26 2.77 3.14 -0.3 0.26 -0.13 -0.14c-0.34,-0.39 -0.67,-0.6 -0.98,-0.63 -0.31,-0.03 -0.65,0.11 -1.01,0.43l-3.66 3.24c-1.35,1.19 -2.63,1.73 -3.84,1.63 -1.21,-0.11 -2.45,-0.87 -3.7,-2.28 -1.19,-1.34 -1.75,-2.63 -1.68,-3.86 0.06,-1.23 0.75,-2.42 2.07,-3.58l3.66 -3.24c0.36,-0.32 0.55,-0.64 0.55,-0.95 0.01,-0.31 -0.16,-0.66 -0.5,-1.05l-0.13 -0.14 0.3 -0.26 3.23 3.66zm-1.52 15.4l0.26 -0.3 0.27 0.23c0.54,0.46 0.98,0.71 1.32,0.74 0.34,0.02 0.68,-0.16 1.02,-0.55l5.26 -6.09c0.31,-0.36 0.45,-0.7 0.42,-1.01 -0.03,-0.31 -0.24,-0.63 -0.63,-0.97l-0.15 -0.13 0.26 -0.3 6.59 5.69 -1.61 2.07 -0.33 -0.28c0.44,-0.67 0.64,-1.19 0.6,-1.57 -0.05,-0.37 -0.45,-0.88 -1.2,-1.53l-2.01 -1.74 -3 3.47 1.81 1.57c0.6,0.52 1.05,0.78 1.33,0.77 0.28,-0.01 0.63,-0.2 1.03,-0.56l0.25 0.22 -2.33 2.69 -0.27 -0.24c0.35,-0.5 0.52,-0.88 0.51,-1.15 -0.01,-0.26 -0.33,-0.67 -0.97,-1.22l-1.81 -1.57 -2.25 2.6c-0.41,0.47 -0.59,0.85 -0.55,1.15 0.05,0.3 0.34,0.68 0.89,1.16l1.17 1.01c0.62,0.53 1.15,0.8 1.6,0.81 0.45,0 1,-0.25 1.65,-0.75l0.29 0.25 -2 1.92 -7.4 -6.39zm11.43 7.41c-0.26,0.4 -0.35,0.75 -0.26,1.05 0.08,0.3 0.33,0.59 0.77,0.87l0.16 0.1 -0.22 0.34 -3.6 -2.31 0.22 -0.33 0.16 0.1c0.43,0.28 0.8,0.39 1.11,0.34 0.31,-0.05 0.59,-0.28 0.85,-0.68l4.5 -7c0.22,-0.35 0.3,-0.62 0.24,-0.82 -0.06,-0.2 -0.36,-0.52 -0.89,-0.98l0.2 -0.31 2.4 1.54 2.32 12.42 4.02 -6.27c0.26,-0.4 0.35,-0.76 0.27,-1.06 -0.08,-0.3 -0.33,-0.59 -0.76,-0.87l-0.16 -0.11 0.22 -0.34 3.6 2.31 -0.21 0.33 -0.16 -0.1c-0.43,-0.27 -0.79,-0.39 -1.11,-0.33 -0.31,0.05 -0.59,0.28 -0.85,0.68l-5.4 8.41 -0.44 -0.28 -2.57 -13.56 -4.39 6.84zm23.71 5.97c0.05,-1.08 -0.13,-2.02 -0.53,-2.79 -0.41,-0.78 -1.03,-1.38 -1.86,-1.81 -0.57,-0.3 -1.18,-0.48 -1.85,-0.54 -0.67,-0.07 -1.29,-0.02 -1.86,0.16 -0.62,0.2 -1.19,0.53 -1.71,0.99 -0.52,0.45 -0.95,1.01 -1.28,1.66 -0.82,1.58 -1.06,3.1 -0.71,4.55 0.34,1.45 1.19,2.52 2.54,3.22 0.83,0.43 1.69,0.62 2.56,0.56 0.88,-0.06 1.76,-0.35 2.66,-0.89l0.34 0.24 -2.26 1.84 -0.2 -0.1c-0.34,-0.17 -0.9,-0.38 -1.7,-0.61 -0.79,-0.23 -1.39,-0.45 -1.8,-0.66 -0.86,-0.45 -1.57,-0.96 -2.16,-1.54 -0.58,-0.58 -1.02,-1.23 -1.32,-1.95 -0.34,-0.79 -0.5,-1.6 -0.46,-2.42 0.03,-0.82 0.25,-1.62 0.64,-2.39 0.3,-0.58 0.69,-1.11 1.17,-1.57 0.48,-0.46 1.04,-0.84 1.66,-1.14 0.91,-0.44 1.87,-0.64 2.88,-0.62 1.02,0.02 1.98,0.27 2.9,0.74 0.38,0.2 0.79,0.46 1.22,0.78 0.43,0.32 1,0.8 1.71,1.43 0.04,0.03 0.09,0.07 0.16,0.12 0.19,0.16 0.33,0.26 0.44,0.32 0.05,0.03 0.11,0.05 0.17,0.07 0.06,0.02 0.12,0.04 0.18,0.05l-1.1 2.51 -0.44 -0.2zm-2.48 7.83l0.13 -0.38 0.33 0.11c0.67,0.23 1.17,0.29 1.5,0.19 0.33,-0.11 0.57,-0.4 0.74,-0.89l2.6 -7.61c0.15,-0.45 0.16,-0.82 0.01,-1.09 -0.15,-0.27 -0.46,-0.5 -0.95,-0.66l-0.18 -0.06 0.13 -0.38 8.24 2.82 -0.72 2.53 -0.41 -0.14c0.16,-0.79 0.15,-1.35 -0.03,-1.67 -0.18,-0.33 -0.75,-0.65 -1.69,-0.97l-2.52 -0.86 -1.48 4.34 2.27 0.78c0.75,0.26 1.26,0.33 1.52,0.21 0.26,-0.11 0.51,-0.42 0.75,-0.91l0.31 0.11 -1.15 3.37 -0.35 -0.12c0.14,-0.59 0.16,-1.01 0.05,-1.25 -0.11,-0.24 -0.56,-0.5 -1.35,-0.77l-2.27 -0.78 -1.11 3.26c-0.2,0.59 -0.23,1.01 -0.08,1.27 0.15,0.26 0.57,0.51 1.26,0.74l1.46 0.5c0.77,0.26 1.37,0.31 1.78,0.15 0.42,-0.16 0.84,-0.6 1.25,-1.31l0.36 0.12 -1.14 2.53 -9.25 -3.16zm21.12 6.22c-0.85,-0.15 -1.64,-0.41 -2.35,-0.8 -0.71,-0.38 -1.31,-0.86 -1.8,-1.43 -0.56,-0.67 -0.95,-1.4 -1.18,-2.2 -0.22,-0.8 -0.26,-1.62 -0.12,-2.45 0.15,-0.85 0.47,-1.63 0.95,-2.36 0.49,-0.72 1.11,-1.32 1.86,-1.79 0.7,-0.45 1.45,-0.75 2.27,-0.9 0.81,-0.15 1.67,-0.15 2.56,0.01 0.85,0.14 1.63,0.42 2.35,0.8 0.72,0.39 1.33,0.87 1.84,1.45 0.56,0.65 0.95,1.37 1.16,2.17 0.22,0.79 0.25,1.62 0.11,2.48 -0.15,0.86 -0.47,1.65 -0.97,2.38 -0.5,0.72 -1.13,1.32 -1.9,1.79 -0.71,0.44 -1.46,0.73 -2.26,0.87 -0.79,0.14 -1.64,0.14 -2.53,-0.02zm0.31 -0.49c1.35,0.23 2.54,-0.05 3.56,-0.84 1.03,-0.79 1.67,-1.95 1.93,-3.46 0.13,-0.75 0.15,-1.45 0.06,-2.12 -0.08,-0.67 -0.27,-1.3 -0.58,-1.88 -0.37,-0.72 -0.86,-1.31 -1.46,-1.77 -0.6,-0.46 -1.25,-0.75 -1.97,-0.88 -1.34,-0.23 -2.52,0.04 -3.55,0.82 -1.03,0.78 -1.67,1.89 -1.92,3.33 -0.13,0.75 -0.15,1.49 -0.06,2.22 0.09,0.73 0.27,1.38 0.55,1.94 0.35,0.71 0.83,1.3 1.44,1.76 0.61,0.47 1.27,0.76 2,0.89zm11.01 -0.21c-0.04,0.47 0.05,0.82 0.26,1.05 0.21,0.23 0.57,0.36 1.09,0.4l0.19 0.02 -0.03 0.4 -4.9 -0.37 0.03 -0.4 0.2 0.02c0.51,0.04 0.89,-0.04 1.14,-0.23 0.24,-0.19 0.38,-0.52 0.42,-1l0.61 -8.07c0.04,-0.48 -0.05,-0.84 -0.26,-1.06 -0.21,-0.23 -0.57,-0.36 -1.09,-0.4l-0.19 -0.01 0.03 -0.4 8.46 0.64 -0.04 2.33 -0.43 -0.03c-0.05,-0.63 -0.18,-1.06 -0.4,-1.29 -0.22,-0.22 -0.68,-0.36 -1.38,-0.42l-3 -0.23 -0.33 4.35 2.63 0.2c0.77,0.06 1.26,0.01 1.48,-0.14 0.22,-0.15 0.4,-0.45 0.54,-0.91l0.31 0.02 -0.25 3.24 -0.35 -0.04c-0.04,-0.55 -0.15,-0.92 -0.32,-1.1 -0.17,-0.19 -0.62,-0.31 -1.36,-0.37l-0.1 -0.01 -2.64 -0.2 -0.3 4.02zm17.89 1.64c-0.86,0.11 -1.69,0.09 -2.48,-0.06 -0.79,-0.16 -1.51,-0.43 -2.14,-0.83 -0.73,-0.47 -1.33,-1.05 -1.78,-1.74 -0.45,-0.7 -0.73,-1.47 -0.84,-2.31 -0.11,-0.86 -0.05,-1.7 0.21,-2.54 0.25,-0.84 0.67,-1.59 1.25,-2.27 0.53,-0.64 1.16,-1.15 1.89,-1.54 0.73,-0.39 1.55,-0.64 2.44,-0.76 0.85,-0.11 1.68,-0.09 2.48,0.07 0.8,0.16 1.53,0.43 2.18,0.84 0.73,0.45 1.31,1.03 1.76,1.73 0.44,0.69 0.73,1.47 0.84,2.33 0.11,0.87 0.05,1.72 -0.21,2.56 -0.26,0.84 -0.68,1.6 -1.28,2.28 -0.55,0.63 -1.18,1.13 -1.89,1.5 -0.71,0.37 -1.52,0.62 -2.42,0.73zm0.15 -0.56c1.36,-0.18 2.41,-0.8 3.15,-1.87 0.74,-1.07 1.01,-2.36 0.81,-3.88 -0.1,-0.75 -0.29,-1.43 -0.57,-2.05 -0.28,-0.61 -0.65,-1.16 -1.11,-1.63 -0.57,-0.57 -1.21,-0.99 -1.92,-1.26 -0.71,-0.26 -1.42,-0.35 -2.14,-0.25 -1.35,0.18 -2.4,0.79 -3.15,1.84 -0.75,1.05 -1.03,2.3 -0.84,3.75 0.1,0.75 0.3,1.47 0.6,2.14 0.3,0.67 0.67,1.24 1.11,1.69 0.55,0.57 1.18,0.99 1.9,1.26 0.72,0.26 1.44,0.35 2.18,0.25zm9.64 -6.59c0.22,-0 0.42,-0.02 0.61,-0.03 0.19,-0.02 0.37,-0.05 0.53,-0.08 0.93,-0.21 1.6,-0.66 2.01,-1.35 0.41,-0.69 0.51,-1.51 0.29,-2.47 -0.2,-0.87 -0.6,-1.46 -1.22,-1.79 -0.61,-0.33 -1.4,-0.39 -2.37,-0.16 -0.06,0.01 -0.16,0.04 -0.32,0.06 -0.16,0.03 -0.29,0.06 -0.39,0.08 -0.12,0.03 -0.2,0.05 -0.26,0.06 -0.06,0.02 -0.12,0.04 -0.17,0.05l1.3 5.63zm0.82 3.54c0.11,0.46 0.29,0.77 0.56,0.93 0.27,0.15 0.65,0.17 1.16,0.05l0.18 -0.04 0.09 0.39 -4.79 1.1 -0.09 -0.39 0.18 -0.04c0.5,-0.11 0.84,-0.3 1.02,-0.56 0.17,-0.26 0.21,-0.61 0.1,-1.08l-1.82 -7.88c-0.11,-0.47 -0.3,-0.8 -0.58,-0.96 -0.28,-0.17 -0.67,-0.19 -1.16,-0.08 -0.01,0 -0.03,0.01 -0.05,0.02 -0.03,0.01 -0.05,0.02 -0.06,0.02 -0.02,0 -0.04,0.01 -0.05,0.01 -0.01,-0 -0.02,-0 -0.02,-0.01l-0.09 -0.37 4.25 -0.98c1.58,-0.36 2.83,-0.36 3.75,0 0.92,0.37 1.51,1.1 1.76,2.2 0.24,1.05 0.05,1.95 -0.57,2.73 -0.62,0.77 -1.61,1.31 -2.96,1.62 -0.22,0.05 -0.46,0.09 -0.72,0.14 -0.26,0.04 -0.53,0.07 -0.83,0.11l0.71 3.08zm8.62 -6.18c0.22,-0.02 0.42,-0.05 0.61,-0.09 0.19,-0.03 0.36,-0.08 0.52,-0.13 0.91,-0.3 1.53,-0.81 1.88,-1.53 0.35,-0.73 0.37,-1.55 0.06,-2.49 -0.28,-0.85 -0.73,-1.4 -1.37,-1.68 -0.64,-0.28 -1.43,-0.26 -2.38,0.05 -0.06,0.02 -0.16,0.05 -0.32,0.09 -0.16,0.05 -0.28,0.08 -0.39,0.12 -0.11,0.04 -0.2,0.07 -0.26,0.09 -0.06,0.02 -0.11,0.05 -0.17,0.07l1.8 5.49zm1.13 3.45c0.15,0.45 0.36,0.74 0.64,0.87 0.28,0.13 0.67,0.11 1.16,-0.05l0.18 -0.06 0.12 0.38 -4.67 1.53 -0.13 -0.38 0.18 -0.06c0.49,-0.16 0.81,-0.38 0.96,-0.65 0.15,-0.27 0.16,-0.63 0.01,-1.08l-2.52 -7.69c-0.15,-0.46 -0.37,-0.76 -0.67,-0.91 -0.29,-0.14 -0.68,-0.13 -1.16,0.02 -0.01,0 -0.03,0.01 -0.05,0.02 -0.02,0.01 -0.05,0.02 -0.06,0.03 -0.02,0.01 -0.04,0.01 -0.05,0.01 -0.01,0 -0.02,-0 -0.02,-0l-0.12 -0.36 4.15 -1.36c1.54,-0.5 2.78,-0.61 3.74,-0.33 0.95,0.28 1.6,0.96 1.95,2.03 0.33,1.02 0.23,1.94 -0.32,2.76 -0.55,0.82 -1.48,1.45 -2.8,1.88 -0.21,0.07 -0.45,0.14 -0.7,0.2 -0.25,0.06 -0.52,0.12 -0.82,0.18l0.99 3.01zm13.45 -3.22c-0.77,0.4 -1.55,0.67 -2.35,0.79 -0.8,0.13 -1.57,0.11 -2.3,-0.05 -0.85,-0.19 -1.61,-0.53 -2.27,-1.03 -0.66,-0.5 -1.19,-1.12 -1.58,-1.88 -0.4,-0.76 -0.62,-1.58 -0.67,-2.45 -0.05,-0.87 0.08,-1.73 0.39,-2.56 0.28,-0.78 0.7,-1.48 1.25,-2.09 0.55,-0.61 1.23,-1.13 2.03,-1.55 0.76,-0.4 1.55,-0.66 2.35,-0.79 0.81,-0.13 1.59,-0.12 2.34,0.04 0.83,0.18 1.58,0.51 2.24,1.01 0.66,0.5 1.19,1.14 1.59,1.9 0.4,0.78 0.63,1.6 0.68,2.48 0.05,0.87 -0.09,1.73 -0.42,2.58 -0.3,0.78 -0.72,1.47 -1.26,2.06 -0.54,0.59 -1.22,1.1 -2.02,1.52zm-0.05 -0.58c1.21,-0.63 1.98,-1.58 2.31,-2.83 0.33,-1.25 0.14,-2.56 -0.57,-3.92 -0.35,-0.67 -0.76,-1.25 -1.24,-1.73 -0.48,-0.48 -1.01,-0.86 -1.6,-1.15 -0.73,-0.34 -1.48,-0.52 -2.24,-0.52 -0.75,-0 -1.45,0.16 -2.1,0.5 -1.2,0.63 -1.98,1.57 -2.32,2.81 -0.35,1.25 -0.18,2.52 0.49,3.81 0.35,0.67 0.79,1.27 1.3,1.8 0.51,0.53 1.06,0.93 1.62,1.2 0.71,0.35 1.45,0.52 2.21,0.53 0.76,0 1.48,-0.17 2.13,-0.51zm7.07 -3.38l-0.22 -0.33 0.16 -0.1c0.43,-0.28 0.69,-0.57 0.77,-0.87 0.08,-0.3 -0.01,-0.65 -0.27,-1.05l-4.39 -6.8c-0.26,-0.4 -0.54,-0.62 -0.86,-0.68 -0.31,-0.05 -0.68,0.06 -1.11,0.33l-0.16 0.1 -0.22 -0.33 3.32 -2.14c1.6,-1.03 2.93,-1.56 4.01,-1.6 1.07,-0.04 1.92,0.42 2.54,1.38 0.38,0.59 0.53,1.2 0.46,1.85 -0.07,0.64 -0.38,1.29 -0.9,1.95l1.9 0.89c1.27,0.59 2.24,0.98 2.91,1.14 0.67,0.17 1.18,0.17 1.53,0.01l0.17 0.32 -0.21 0.13c-0.49,0.32 -1.01,0.51 -1.55,0.58 -0.54,0.07 -1.11,0.02 -1.69,-0.16 -0.69,-0.22 -1.46,-0.54 -2.29,-0.97 -0.84,-0.43 -1.35,-0.67 -1.52,-0.73 -0.07,-0.02 -0.14,-0.02 -0.23,0.01 -0.08,0.03 -0.19,0.08 -0.3,0.15 -0.08,0.05 -0.26,0.17 -0.52,0.36 -0.26,0.18 -0.48,0.33 -0.66,0.45 -0.05,0.04 -0.15,0.09 -0.26,0.16 -0.11,0.07 -0.2,0.12 -0.26,0.16l1.66 2.57c0.25,0.39 0.53,0.62 0.84,0.68 0.3,0.06 0.66,-0.05 1.07,-0.31l0.21 -0.13 0.22 0.34 -4.13 2.66zm-0.05 -6.11l1.12 -0.72c0.81,-0.52 1.31,-1.15 1.49,-1.87 0.18,-0.72 0.02,-1.46 -0.46,-2.22 -0.53,-0.82 -1.17,-1.29 -1.92,-1.42 -0.75,-0.13 -1.56,0.08 -2.43,0.65 -0.05,0.03 -0.14,0.09 -0.28,0.17 -0.14,0.08 -0.26,0.15 -0.34,0.21 -0.1,0.06 -0.18,0.11 -0.23,0.15 -0.05,0.04 -0.1,0.07 -0.14,0.11l3.19 4.95zm13.26 -5.29c0.29,0.37 0.59,0.58 0.9,0.6 0.31,0.02 0.66,-0.12 1.07,-0.44l0.15 -0.12 0.25 0.31 -3.85 3.02 -0.25 -0.31 0.15 -0.12c0.4,-0.32 0.63,-0.63 0.68,-0.93 0.05,-0.31 -0.07,-0.65 -0.37,-1.02l-5.63 -7.17 -1.98 1.55c-0.56,0.44 -0.85,0.82 -0.87,1.15 -0.03,0.33 0.19,0.9 0.64,1.7l-0.32 0.25 -1.66 -2.6 0.3 -0.23c0.09,0.05 0.18,0.06 0.27,0.03 0.09,-0.03 0.25,-0.13 0.47,-0.3l6.65 -5.22c0.22,-0.17 0.36,-0.3 0.42,-0.39 0.05,-0.09 0.07,-0.18 0.04,-0.27l0.29 -0.22 2.14 2.23 -0.31 0.24c-0.67,-0.63 -1.17,-0.97 -1.5,-1.03 -0.33,-0.05 -0.77,0.14 -1.33,0.58l-1.98 1.55 5.63 7.17zm0.65 -13.94l0.29 0.27 -0.13 0.14c-0.35,0.37 -0.53,0.71 -0.53,1.02 -0.01,0.31 0.17,0.64 0.51,0.97l3.55 3.37c0.55,0.52 1.02,0.88 1.4,1.09 0.39,0.21 0.8,0.33 1.22,0.36 0.55,0.05 1.12,-0.06 1.69,-0.32 0.58,-0.27 1.12,-0.67 1.63,-1.2 0.54,-0.56 0.93,-1.16 1.18,-1.77 0.25,-0.62 0.33,-1.2 0.24,-1.74 -0.06,-0.4 -0.22,-0.79 -0.48,-1.17 -0.26,-0.39 -0.7,-0.88 -1.35,-1.49l-3.34 -3.17c-0.35,-0.33 -0.68,-0.49 -0.99,-0.46 -0.31,0.02 -0.65,0.22 -1,0.59l-0.13 0.14 -0.29 -0.27 2.88 -3.04 0.29 0.28 -0.13 0.14c-0.36,0.37 -0.53,0.72 -0.54,1.03 -0.01,0.31 0.17,0.64 0.51,0.97l3.55 3.37c1.3,1.24 1.95,2.46 1.96,3.69 -0,1.22 -0.65,2.51 -1.95,3.88 -1.23,1.3 -2.47,1.97 -3.7,2.01 -1.23,0.05 -2.48,-0.54 -3.75,-1.74l-3.55 -3.37c-0.35,-0.33 -0.68,-0.49 -0.99,-0.47 -0.31,0.02 -0.64,0.22 -1,0.59l-0.13 0.14 -0.29 -0.28 3.36 -3.54zm15.88 -3.5c0.39,0.27 0.73,0.38 1.04,0.32 0.3,-0.06 0.6,-0.31 0.9,-0.73l0.11 -0.15 0.33 0.23 -2.47 3.49 -0.33 -0.23 0.11 -0.15c0.3,-0.42 0.43,-0.78 0.39,-1.09 -0.04,-0.31 -0.25,-0.6 -0.64,-0.87l-6.79 -4.81c-0.34,-0.24 -0.6,-0.33 -0.8,-0.28 -0.2,0.05 -0.54,0.33 -1.02,0.84l-0.3 -0.21 1.65 -2.32 12.52 -1.75 -6.07 -4.31c-0.39,-0.28 -0.74,-0.39 -1.04,-0.32 -0.31,0.06 -0.61,0.3 -0.9,0.72l-0.11 0.16 -0.33 -0.23 2.47 -3.49 0.33 0.23 -0.11 0.16c-0.29,0.42 -0.42,0.78 -0.38,1.09 0.04,0.31 0.25,0.61 0.64,0.88l8.15 5.78 -0.3 0.42 -13.66 1.94 6.62 4.7zm8.75 -14.13c0.42,0.22 0.77,0.27 1.07,0.16 0.29,-0.11 0.56,-0.39 0.8,-0.84l0.09 -0.18 0.36 0.18 -2.26 4.37 -0.35 -0.18 0.08 -0.17c0.24,-0.46 0.32,-0.84 0.24,-1.14 -0.08,-0.3 -0.33,-0.56 -0.76,-0.78l-7.18 -3.72c-0.43,-0.22 -0.79,-0.28 -1.08,-0.17 -0.3,0.11 -0.56,0.39 -0.8,0.85l-0.09 0.17 -0.36 -0.18 2.26 -4.35 0.35 0.18 -0.09 0.17c-0.24,0.46 -0.31,0.84 -0.23,1.14 0.08,0.3 0.34,0.56 0.76,0.79l7.18 3.72zm3.72 -8.08c0.44,0.17 0.8,0.19 1.08,0.05 0.28,-0.14 0.51,-0.45 0.7,-0.92l0.07 -0.18 0.37 0.14 -1.77 4.57 -0.37 -0.14 0.07 -0.18c0.19,-0.48 0.22,-0.86 0.11,-1.15 -0.11,-0.29 -0.39,-0.52 -0.83,-0.69l-8.5 -3.3 -0.91 2.35c-0.26,0.66 -0.31,1.14 -0.16,1.44 0.15,0.3 0.62,0.68 1.42,1.14l-0.14 0.37 -2.76 -1.39 0.14 -0.36c0.1,0 0.18,-0.04 0.25,-0.11 0.06,-0.08 0.15,-0.24 0.25,-0.5l3.07 -7.88c0.1,-0.26 0.15,-0.45 0.15,-0.55 0,-0.1 -0.03,-0.19 -0.1,-0.26l0.13 -0.34 2.98 0.83 -0.15 0.37c-0.89,-0.2 -1.5,-0.24 -1.81,-0.12 -0.31,0.12 -0.59,0.51 -0.85,1.17l-0.91 2.35 8.5 3.3zm3.16 -8.59c0.44,0.15 0.8,0.15 1.08,0 0.27,-0.15 0.5,-0.46 0.66,-0.95l0.07 -0.19 0.38 0.13 -1.59 4.65 -0.38 -0.13 0.06 -0.18c0.17,-0.49 0.19,-0.87 0.06,-1.16 -0.12,-0.28 -0.41,-0.5 -0.86,-0.66l-7.65 -2.62c-0.45,-0.16 -0.82,-0.16 -1.09,-0.01 -0.27,0.15 -0.5,0.47 -0.66,0.95l-0.06 0.18 -0.38 -0.13 1.59 -4.64 0.38 0.13 -0.06 0.18c-0.17,0.49 -0.19,0.88 -0.06,1.16 0.12,0.28 0.42,0.51 0.87,0.66l7.65 2.62zm2.6 -2.39l-0.39 -0.09 0.08 -0.34c0.16,-0.69 0.17,-1.2 0.04,-1.51 -0.14,-0.31 -0.46,-0.53 -0.96,-0.64l-7.84 -1.79c-0.47,-0.11 -0.83,-0.07 -1.09,0.1 -0.26,0.18 -0.45,0.51 -0.56,1.01l-0.04 0.19 -0.39 -0.09 1.94 -8.49 2.59 0.45 -0.1 0.42c-0.8,-0.08 -1.35,-0.01 -1.66,0.21 -0.3,0.21 -0.57,0.81 -0.79,1.78l-0.59 2.59 4.47 1.02 0.53 -2.34c0.18,-0.77 0.2,-1.29 0.05,-1.54 -0.14,-0.25 -0.47,-0.46 -0.98,-0.65l0.07 -0.32 3.47 0.79 -0.08 0.36c-0.61,-0.08 -1.02,-0.05 -1.25,0.09 -0.23,0.13 -0.44,0.61 -0.63,1.43l-0.53 2.34 3.35 0.77c0.61,0.14 1.03,0.12 1.28,-0.05 0.24,-0.18 0.45,-0.62 0.61,-1.33l0.34 -1.5c0.18,-0.79 0.17,-1.39 -0.04,-1.79 -0.21,-0.4 -0.68,-0.77 -1.44,-1.11l0.09 -0.37 2.63 0.87 -2.18 9.53zm2.34 -11.54l-2.82 0.01 0.1 -0.37c0.85,-0.13 1.53,-0.43 2.03,-0.9 0.5,-0.47 0.8,-1.07 0.9,-1.82 0.09,-0.7 -0.03,-1.32 -0.38,-1.86 -0.34,-0.53 -0.8,-0.84 -1.37,-0.92 -0.83,-0.11 -1.84,0.53 -3.04,1.92 -0.1,0.11 -0.17,0.2 -0.22,0.25 -0.02,0.02 -0.05,0.06 -0.09,0.11 -1.16,1.33 -1.98,2.1 -2.45,2.32 -0.28,0.14 -0.56,0.22 -0.84,0.27 -0.27,0.05 -0.55,0.05 -0.84,0.01 -0.81,-0.11 -1.42,-0.5 -1.83,-1.18 -0.41,-0.68 -0.55,-1.53 -0.42,-2.55 0.06,-0.44 0.2,-0.91 0.41,-1.41 0.22,-0.5 0.34,-0.81 0.35,-0.91 0.01,-0.09 0.01,-0.18 0,-0.28 -0.01,-0.1 -0.03,-0.2 -0.06,-0.32l2.4 0 -0.03 0.37c-0.74,0.19 -1.34,0.51 -1.79,0.94 -0.45,0.44 -0.71,0.96 -0.79,1.57 -0.08,0.6 0.02,1.11 0.3,1.55 0.28,0.43 0.67,0.68 1.17,0.75 0.78,0.1 1.8,-0.59 3.07,-2.07 0.02,-0.03 0.03,-0.04 0.04,-0.05 0.04,-0.05 0.1,-0.13 0.19,-0.23 0.79,-0.94 1.45,-1.6 1.96,-1.97 0.3,-0.22 0.64,-0.37 1,-0.46 0.36,-0.09 0.72,-0.12 1.07,-0.07 1.01,0.13 1.74,0.58 2.22,1.34 0.48,0.76 0.63,1.76 0.47,2.97 -0.05,0.36 -0.18,0.79 -0.39,1.28 -0.21,0.49 -0.33,0.82 -0.36,0.99 -0.02,0.13 -0.02,0.25 -0.02,0.37 0.01,0.11 0.02,0.23 0.04,0.34z"/>
  </g>
 </g>
</svg>
